<?xml version="1.0" encoding="UTF-8" standalone="no"?>
<!DOCTYPE svg PUBLIC "-//W3C//DTD SVG 1.1//EN" "http://www.w3.org/Graphics/SVG/1.1/DTD/svg11.dtd">
<svg xmlns="http://www.w3.org/2000/svg" version="1.1" viewBox="0.00 0.00 1290.00 435.00">
<g stroke-width="2.00" fill="none" stroke-linecap="butt">
<path stroke="#f09a93" vector-effect="non-scaling-stroke" d="
  M 339.31 306.33
  A 0.40 0.40 0.0 0 0 339.69 306.61
  L 405.41 306.57
  A 0.40 0.40 0.0 0 0 405.78 306.03
  L 314.98 56.75
  A 0.40 0.40 0.0 0 0 314.60 56.49
  L 261.02 56.50
  A 0.40 0.40 0.0 0 0 260.63 57.02
  L 339.31 306.33"
/>
<path stroke="#f7c0b3" vector-effect="non-scaling-stroke" d="
  M 247.16 306.64
  A 0.46 0.45 -81.2 0 1 247.59 306.32
  L 323.53 305.35
  A 0.70 0.70 0.0 0 0 324.19 304.44
  L 309.08 256.52
  A 0.82 0.82 0.0 0 0 308.30 255.95
  L 263.51 255.94
  A 0.53 0.52 -81.4 0 1 263.01 255.26
  L 285.00 182.20
  Q 285.30 181.19 284.99 180.20
  L 258.82 97.30
  Q 258.48 96.22 258.08 97.28
  L 157.09 361.10
  A 0.56 0.55 25.8 0 0 157.33 361.77
  Q 157.59 361.92 157.90 361.92
  Q 193.76 361.95 229.48 361.93
  A 1.28 1.28 0.0 0 0 230.70 361.03
  L 247.16 306.64"
/>
<path stroke="#8babc3" vector-effect="non-scaling-stroke" d="
  M 746.64 290.48
  A 0.10 0.09 -46.6 0 1 746.64 290.33
  C 763.71 276.12 773.58 255.45 776.37 233.53
  C 778.20 219.11 778.16 202.51 776.11 188.47
  C 770.23 148.17 741.36 117.58 699.29 115.95
  Q 687.58 115.50 677.38 117.44
  C 644.28 123.75 621.30 149.87 614.98 182.15
  Q 610.27 206.24 613.55 232.74
  Q 616.05 252.90 624.86 268.07
  Q 645.83 304.18 688.49 307.58
  Q 696.76 308.24 704.61 307.25
  A 1.92 1.91 -29.2 0 1 706.07 307.66
  L 745.05 339.18
  A 1.02 1.01 43.6 0 0 746.36 339.15
  L 775.45 313.71
  A 0.26 0.26 0.0 0 0 775.44 313.31
  L 746.64 290.48"
/>
<path stroke="#8babc3" vector-effect="non-scaling-stroke" d="
  M 888.75 157.55
  C 900.63 161.27 903.34 172.61 903.99 183.72
  Q 904.02 184.26 904.56 184.26
  L 951.78 184.25
  A 0.37 0.37 0.0 0 0 952.15 183.85
  C 949.98 157.96 936.88 135.70 913.74 124.06
  C 902.90 118.60 890.59 116.23 878.09 115.83
  Q 866.55 115.45 857.83 116.90
  C 833.20 121.00 814.18 136.13 803.37 159.00
  C 793.65 179.59 792.74 202.28 793.92 225.38
  Q 794.44 235.55 796.93 246.58
  C 804.48 279.91 826.81 302.63 860.94 306.98
  C 905.48 312.65 949.38 290.71 951.93 241.25
  A 0.46 0.46 0.0 0 0 951.47 240.76
  L 904.26 240.75
  A 0.55 0.54 -88.9 0 0 903.72 241.28
  C 903.34 253.73 898.70 263.29 885.85 266.61
  Q 875.97 269.15 866.65 267.53
  C 855.64 265.62 849.21 259.73 846.25 249.12
  Q 843.20 238.18 842.88 225.65
  Q 842.52 211.95 842.92 198.47
  Q 843.33 184.65 846.87 173.83
  C 849.73 165.07 856.16 157.62 865.76 156.11
  Q 878.01 154.19 888.75 157.55"
/>
<path stroke="#8babc3" vector-effect="non-scaling-stroke" d="
  M 1122.62 260.69
  Q 1129.88 244.36 1131.02 225.09
  Q 1131.76 212.47 1131.07 199.23
  C 1129.26 164.88 1111.53 132.94 1078.12 120.71
  C 1063.40 115.32 1045.68 114.57 1030.98 117.48
  C 998.82 123.85 976.50 148.22 969.32 179.70
  C 966.18 193.49 965.63 206.89 966.28 221.58
  Q 966.70 230.99 968.68 240.94
  C 975.41 274.73 999.04 300.88 1033.71 306.54
  C 1071.58 312.73 1106.71 296.49 1122.62 260.69"
/>
<path stroke="#8babc3" vector-effect="non-scaling-stroke" d="
  M 494.82 241.77
  L 514.46 241.76
  A 1.05 1.03 76.5 0 1 515.39 242.34
  L 546.18 304.83
  A 0.66 0.65 -13.0 0 0 546.77 305.19
  L 596.32 305.18
  Q 599.23 305.17 597.91 302.58
  L 560.58 229.34
  A 0.76 0.76 0.0 0 1 560.90 228.32
  Q 566.37 225.43 571.49 221.75
  C 584.17 212.61 590.61 198.72 591.59 183.07
  Q 592.29 171.78 590.99 163.59
  C 585.74 130.58 552.77 118.57 523.64 118.52
  Q 484.73 118.45 446.23 118.50
  A 0.47 0.47 0.0 0 0 445.76 118.97
  L 445.77 304.46
  A 0.70 0.69 -90.0 0 0 446.46 305.16
  L 493.47 305.19
  Q 494.14 305.19 494.14 304.53
  L 494.15 242.43
  Q 494.15 241.77 494.82 241.77"
/>
<path stroke="#8babc3" vector-effect="non-scaling-stroke" d="
  M 265.0729 362.1569
  A 16.71 15.57 101.8 0 0 283.7310 348.9840
  A 16.71 15.57 101.8 0 0 271.9071 329.4431
  A 16.71 15.57 101.8 0 0 253.2490 342.6160
  A 16.71 15.57 101.8 0 0 265.0729 362.1569"
/>
<path stroke="#8babc3" vector-effect="non-scaling-stroke" d="
  M 393.13 355.76
  C 389.44 357.81 383.94 357.09 380.18 355.63
  Q 379.24 355.26 379.09 356.25
  L 378.43 360.55
  Q 378.32 361.27 379.03 361.43
  C 385.74 362.93 399.91 363.93 400.44 353.44
  C 400.82 345.84 393.98 343.17 388.06 340.99
  Q 385.85 340.17 385.25 338.09
  Q 384.70 336.19 386.43 335.47
  Q 390.55 333.75 397.78 335.98
  A 0.32 0.32 0.0 0 0 398.20 335.72
  L 398.89 330.37
  Q 398.93 330.12 398.68 330.06
  C 391.57 328.32 376.64 328.36 379.02 340.26
  C 380.07 345.51 386.42 347.69 390.87 349.68
  Q 393.55 350.88 394.16 353.38
  A 2.14 2.14 0.0 0 1 393.13 355.76"
/>
<path stroke="#8babc3" vector-effect="non-scaling-stroke" d="
  M 437.39 347.66
  A 0.42 0.42 0.0 0 1 436.71 347.90
  L 430.88 343.04
  A 0.42 0.41 51.8 0 1 430.96 342.35
  C 435.58 340.06 437.32 333.93 432.39 330.89
  Q 427.13 327.65 421.15 330.54
  C 415.51 333.27 416.76 339.66 421.32 342.70
  A 0.53 0.53 0.0 0 1 421.24 343.63
  Q 415.78 346.08 414.86 352.01
  C 414.08 356.98 416.69 361.15 421.67 362.03
  Q 430.13 363.52 435.68 356.56
  A 0.70 0.70 0.0 0 1 436.78 356.56
  Q 438.31 358.48 439.18 360.79
  Q 439.45 361.52 440.23 361.53
  L 445.57 361.59
  Q 446.89 361.61 446.30 360.43
  Q 443.80 355.46 440.08 351.61
  Q 439.68 351.19 440.03 350.72
  Q 442.31 347.66 444.08 343.84
  Q 444.47 343.01 443.55 343.00
  L 438.89 342.97
  Q 438.21 342.97 438.09 343.63
  L 437.39 347.66"
/>
<path stroke="#8babc3" vector-effect="non-scaling-stroke" d="
  M 529.3064 362.1411
  A 16.70 15.58 101.9 0 0 547.9952 349.0127
  A 16.70 15.58 101.9 0 0 536.1936 329.4589
  A 16.70 15.58 101.9 0 0 517.5048 342.5873
  A 16.70 15.58 101.9 0 0 529.3064 362.1411"
/>
<path stroke="#8babc3" vector-effect="non-scaling-stroke" d="
  M 613.18 341.10
  C 615.32 334.40 621.47 333.84 627.38 335.39
  Q 627.59 335.44 627.63 335.23
  L 628.52 330.23
  Q 628.58 329.92 628.26 329.84
  C 620.95 328.03 612.94 329.91 608.63 336.34
  C 601.54 346.92 606.86 361.07 620.06 362.18
  Q 624.85 362.59 629.36 361.51
  Q 629.59 361.46 629.60 361.22
  L 630.01 356.26
  Q 630.03 356.03 629.81 356.10
  C 624.42 357.70 617.72 357.62 614.46 352.44
  Q 611.21 347.28 613.18 341.10"
/>
<path stroke="#8babc3" vector-effect="non-scaling-stroke" d="
  M 671.4470 362.1373
  A 16.69 15.58 101.8 0 0 690.1108 348.9860
  A 16.69 15.58 101.8 0 0 678.2730 329.4627
  A 16.69 15.58 101.8 0 0 659.6092 342.6140
  A 16.69 15.58 101.8 0 0 671.4470 362.1373"
/>
<path stroke="#8babc3" vector-effect="non-scaling-stroke" d="
  M 708.38 356.07
  Q 702.83 358.25 695.62 355.52
  A 0.59 0.59 0.0 0 0 694.84 355.96
  L 693.98 360.55
  A 0.69 0.69 0.0 0 0 694.49 361.35
  C 700.76 362.88 714.76 363.88 716.13 354.49
  C 717.31 346.39 710.12 343.35 703.87 341.02
  Q 701.91 340.29 701.00 338.57
  A 2.32 2.31 -21.0 0 1 702.48 335.25
  Q 707.58 333.95 713.11 335.89
  A 0.52 0.51 13.6 0 0 713.79 335.48
  L 714.50 330.55
  Q 714.58 330.03 714.05 329.92
  Q 709.01 328.94 704.04 329.35
  C 697.92 329.85 692.99 334.15 694.83 340.85
  C 696.13 345.56 702.10 347.62 706.06 349.38
  Q 708.39 350.42 709.62 352.45
  A 2.51 2.50 -26.1 0 1 708.38 356.07"
/>
<path stroke="#8babc3" vector-effect="non-scaling-stroke" d="
  M 307.04 343.75
  C 310.58 341.73 312.64 339.66 311.67 335.14
  C 310.95 331.78 306.53 330.32 303.59 330.16
  Q 297.65 329.84 289.79 330.03
  Q 289.17 330.04 289.20 330.66
  Q 289.85 344.76 289.24 360.93
  Q 289.22 361.46 289.75 361.49
  C 297.68 361.95 315.09 363.04 313.49 350.58
  C 313.01 346.80 310.51 345.46 307.15 344.59
  Q 306.06 344.31 307.04 343.75"
/>
<path stroke="#8babc3" vector-effect="non-scaling-stroke" d="
  M 326.46 349.18
  C 329.24 349.05 332.13 349.17 333.69 351.87
  C 335.30 354.65 336.30 357.61 337.12 360.64
  Q 337.35 361.49 338.23 361.51
  L 343.79 361.60
  Q 345.12 361.63 344.53 360.43
  C 342.13 355.59 340.86 349.03 335.88 346.44
  Q 335.21 346.09 335.91 345.82
  Q 342.23 343.42 341.91 336.78
  C 341.65 331.54 335.31 329.99 331.11 330.00
  Q 325.57 330.01 319.70 329.98
  Q 319.06 329.98 319.09 330.61
  Q 319.80 346.71 319.08 361.05
  A 0.45 0.44 -88.8 0 0 319.52 361.52
  L 325.43 361.55
  Q 325.91 361.55 325.90 361.07
  L 325.69 350.00
  Q 325.67 349.22 326.46 349.18"
/>
<path stroke="#8babc3" vector-effect="non-scaling-stroke" d="
  M 354.73 352.61
  A 0.47 0.47 0.0 0 1 355.18 352.26
  L 365.54 352.28
  A 0.47 0.47 0.0 0 1 366.00 352.62
  L 368.39 361.15
  A 0.47 0.47 0.0 0 0 368.83 361.50
  L 375.66 361.61
  A 0.47 0.47 0.0 0 0 376.11 360.98
  L 365.46 330.30
  A 0.47 0.47 0.0 0 0 365.01 329.98
  L 357.13 330.00
  A 0.47 0.47 0.0 0 0 356.70 330.30
  L 345.18 360.81
  A 0.47 0.47 0.0 0 0 345.63 361.44
  L 352.09 361.38
  A 0.47 0.47 0.0 0 0 352.54 361.03
  L 354.73 352.61"
/>
<path stroke="#8babc3" vector-effect="non-scaling-stroke" d="
  M 468.54 349.99
  C 476.31 350.20 484.60 347.43 484.46 338.16
  C 484.37 332.79 479.09 330.31 474.49 330.11
  Q 468.73 329.86 461.55 330.02
  A 0.27 0.26 -2.2 0 0 461.29 330.29
  Q 461.78 345.40 461.30 360.84
  Q 461.27 361.53 461.96 361.53
  L 467.57 361.60
  Q 468.24 361.60 468.21 360.93
  L 467.84 350.70
  Q 467.81 349.97 468.54 349.99"
/>
<path stroke="#8babc3" vector-effect="non-scaling-stroke" d="
  M 505.83 345.69
  Q 512.78 343.05 511.40 335.36
  C 510.77 331.85 505.63 330.25 502.64 330.13
  Q 496.43 329.89 489.36 330.02
  Q 488.75 330.03 488.78 330.64
  Q 489.36 346.15 488.79 361.05
  Q 488.77 361.54 489.26 361.54
  L 495.17 361.56
  Q 495.65 361.56 495.64 361.08
  L 495.42 350.00
  Q 495.40 349.39 496.00 349.29
  C 504.60 347.88 504.94 355.81 507.43 361.39
  A 0.37 0.36 77.1 0 0 507.76 361.60
  L 514.48 361.50
  Q 514.67 361.50 514.60 361.31
  Q 512.62 356.48 510.42 351.65
  Q 508.89 348.31 505.77 346.42
  Q 505.06 345.99 505.83 345.69"
/>
<path stroke="#8babc3" vector-effect="non-scaling-stroke" d="
  M 564.05 344.87
  L 557.91 330.58
  Q 557.66 330.00 557.03 330.00
  L 550.78 330.01
  A 0.58 0.58 0.0 0 0 550.28 330.88
  C 553.56 336.50 557.64 342.39 559.61 348.43
  C 560.84 352.24 559.90 357.01 559.99 361.09
  Q 560.00 361.55 560.47 361.56
  L 566.27 361.60
  A 0.48 0.48 0.0 0 0 566.76 361.08
  Q 566.51 357.01 566.40 352.85
  C 566.31 349.71 567.43 346.55 569.03 344.00
  Q 573.18 337.36 577.47 330.21
  A 0.06 0.05 -73.3 0 0 577.43 330.12
  Q 571.89 329.85 570.75 330.14
  Q 570.69 330.15 570.66 330.21
  Q 567.33 337.48 564.36 344.86
  Q 564.21 345.24 564.05 344.87"
/>
<path stroke="#8babc3" vector-effect="non-scaling-stroke" d="
  M 588.15 356.12
  A 0.43 0.43 0.0 0 1 587.71 355.70
  L 587.52 348.90
  A 0.43 0.43 0.0 0 1 587.96 348.46
  L 598.05 348.60
  A 0.43 0.43 0.0 0 0 598.49 348.17
  L 598.49 343.08
  A 0.43 0.43 0.0 0 0 598.05 342.65
  L 587.98 342.90
  A 0.43 0.43 0.0 0 1 587.54 342.47
  L 587.48 335.92
  A 0.43 0.43 0.0 0 1 587.93 335.48
  L 600.20 335.87
  A 0.43 0.43 0.0 0 0 600.65 335.45
  L 600.84 330.45
  A 0.43 0.43 0.0 0 0 600.41 330.00
  L 581.47 330.00
  A 0.43 0.43 0.0 0 0 581.04 330.43
  L 581.07 361.11
  A 0.43 0.43 0.0 0 0 581.50 361.54
  L 601.33 361.57
  A 0.43 0.43 0.0 0 0 601.76 361.15
  L 601.84 356.20
  A 0.43 0.43 0.0 0 0 601.40 355.76
  L 588.15 356.12"
/>
<path stroke="#8babc3" vector-effect="non-scaling-stroke" d="
  M 640.81 335.36
  A 0.47 0.47 0.0 0 1 641.30 335.83
  L 641.15 361.07
  A 0.47 0.47 0.0 0 0 641.62 361.54
  L 647.28 361.56
  A 0.47 0.47 0.0 0 0 647.76 361.08
  L 647.55 336.07
  A 0.47 0.47 0.0 0 1 648.04 335.60
  L 656.37 335.93
  A 0.47 0.47 0.0 0 0 656.86 335.49
  L 657.15 330.51
  A 0.47 0.47 0.0 0 0 656.68 330.01
  L 632.39 329.99
  A 0.47 0.47 0.0 0 0 631.92 330.45
  L 631.77 335.23
  A 0.47 0.47 0.0 0 0 632.26 335.71
  L 640.81 335.36"
/>
<path stroke="#8babc3" vector-effect="non-scaling-stroke" d="
  M 667.65 172.82
  Q 664.79 178.97 663.84 183.85
  Q 658.64 210.53 663.51 237.44
  C 666.25 252.58 674.93 266.20 691.15 268.12
  C 714.49 270.90 725.15 250.95 727.46 230.98
  Q 729.98 209.28 726.99 189.15
  Q 725.35 178.14 719.86 169.11
  C 714.28 159.91 705.48 155.37 694.67 155.42
  Q 675.68 155.52 667.65 172.82"
/>
<path stroke="#8babc3" vector-effect="non-scaling-stroke" d="
  M 1042.96 155.88
  C 1026.58 158.16 1019.73 173.03 1017.05 187.56
  Q 1015.49 196.01 1015.35 203.32
  C 1015.14 213.59 1014.99 223.97 1016.77 233.97
  C 1019.08 246.98 1024.28 261.37 1037.77 266.35
  C 1049.53 270.70 1062.90 268.15 1071.10 258.20
  C 1077.17 250.82 1080.40 239.92 1081.36 230.74
  Q 1083.35 211.78 1081.43 193.07
  C 1080.61 185.07 1078.10 175.95 1073.80 169.13
  Q 1063.63 153.01 1042.96 155.88"
/>
<path stroke="#8babc3" vector-effect="non-scaling-stroke" d="
  M 494.21 157.66
  L 494.05 202.34
  A 0.37 0.37 0.0 0 0 494.42 202.71
  L 522.45 202.81
  A 21.16 20.60 0.2 0 0 543.68 182.29
  L 543.70 178.07
  A 21.16 20.60 0.2 0 0 522.61 157.39
  L 494.58 157.29
  A 0.37 0.37 0.0 0 0 494.21 157.66"
/>
<path stroke="#8babc3" vector-effect="non-scaling-stroke" d="
  M 268.7439 357.0067
  A 11.21 8.84 88.6 0 0 277.3074 345.5840
  A 11.21 8.84 88.6 0 0 268.1961 334.5933
  A 11.21 8.84 88.6 0 0 259.6326 346.0160
  A 11.21 8.84 88.6 0 0 268.7439 357.0067"
/>
<path stroke="#8babc3" vector-effect="non-scaling-stroke" d="
  M 428.3414 340.1825
  A 3.84 3.44 63.7 0 0 429.7239 335.2158
  A 3.84 3.44 63.7 0 0 424.9386 333.2975
  A 3.84 3.44 63.7 0 0 423.5561 338.2642
  A 3.84 3.44 63.7 0 0 428.3414 340.1825"
/>
<path stroke="#8babc3" vector-effect="non-scaling-stroke" d="
  M 432.91 350.99
  L 425.92 345.41
  A 1.76 1.76 0.0 0 0 423.44 345.69
  L 423.30 345.87
  A 8.04 6.13 -51.4 0 0 423.07 355.98
  L 423.23 356.11
  A 8.04 6.13 -51.4 0 0 433.03 353.65
  L 433.18 353.46
  A 1.76 1.76 0.0 0 0 432.91 350.99"
/>
<path stroke="#8babc3" vector-effect="non-scaling-stroke" d="
  M 533.0041 356.9971
  A 11.20 8.84 88.7 0 0 541.5877 345.5994
  A 11.20 8.84 88.7 0 0 532.4959 334.6029
  A 11.20 8.84 88.7 0 0 523.9123 346.0006
  A 11.20 8.84 88.7 0 0 533.0041 356.9971"
/>
<path stroke="#8babc3" vector-effect="non-scaling-stroke" d="
  M 675.0950 357.0175
  A 11.22 8.84 88.8 0 0 683.6981 345.6149
  A 11.22 8.84 88.8 0 0 674.6250 334.5825
  A 11.22 8.84 88.8 0 0 666.0219 345.9851
  A 11.22 8.84 88.8 0 0 675.0950 357.0175"
/>
<path stroke="#8babc3" vector-effect="non-scaling-stroke" d="
  M 295.51 336.21
  L 295.61 342.26
  A 0.72 0.72 0.0 0 0 296.35 342.97
  L 300.30 342.90
  A 5.09 3.45 -1.0 0 0 305.32 339.36
  L 305.31 338.76
  A 5.09 3.45 -1.0 0 0 300.16 335.40
  L 296.22 335.47
  A 0.72 0.72 0.0 0 0 295.51 336.21"
/>
<path stroke="#8babc3" vector-effect="non-scaling-stroke" d="
  M 295.73 348.30
  L 295.75 355.62
  A 0.43 0.43 0.0 0 0 296.18 356.05
  L 300.94 356.03
  A 6.05 3.64 -0.2 0 0 306.98 352.37
  L 306.98 351.47
  A 6.05 3.64 -0.2 0 0 300.92 347.85
  L 296.16 347.87
  A 0.43 0.43 0.0 0 0 295.73 348.30"
/>
<path stroke="#8babc3" vector-effect="non-scaling-stroke" d="
  M 325.61 335.96
  L 325.77 344.19
  A 0.49 0.49 0.0 0 0 326.27 344.68
  L 330.29 344.60
  A 5.43 4.15 -1.1 0 0 335.64 340.34
  L 335.62 339.42
  A 5.43 4.15 -1.1 0 0 330.11 335.38
  L 326.09 335.46
  A 0.49 0.49 0.0 0 0 325.61 335.96"
/>
<path stroke="#8babc3" vector-effect="non-scaling-stroke" d="
  M 356.27 346.55
  A 0.31 0.31 0.0 0 0 356.57 346.96
  L 363.93 347.03
  A 0.31 0.31 0.0 0 0 364.22 346.63
  L 360.67 335.09
  A 0.31 0.31 0.0 0 0 360.07 335.09
  L 356.27 346.55"
/>
<path stroke="#8babc3" vector-effect="non-scaling-stroke" d="
  M 467.71 336.11
  L 467.83 344.65
  A 0.69 0.69 0.0 0 0 468.53 345.33
  L 472.03 345.28
  A 6.19 4.73 -0.8 0 0 478.15 340.47
  L 478.15 340.01
  A 6.19 4.73 -0.8 0 0 471.89 335.36
  L 468.39 335.41
  A 0.69 0.69 0.0 0 0 467.71 336.11"
/>
<path stroke="#8babc3" vector-effect="non-scaling-stroke" d="
  M 495.20 336.24
  L 495.50 344.06
  A 0.72 0.72 0.0 0 0 496.25 344.75
  L 500.18 344.60
  A 5.29 4.09 -2.2 0 0 505.31 340.31
  L 505.27 339.23
  A 5.29 4.09 -2.2 0 0 499.82 335.35
  L 495.90 335.50
  A 0.72 0.72 0.0 0 0 495.20 336.24"
/>
</g>
<path fill="#ffffff" d="
  M 0.00 0.00
  L 1290.00 0.00
  L 1290.00 435.00
  L 0.00 435.00
  L 0.00 0.00
  Z
  M 339.31 306.33
  A 0.40 0.40 0.0 0 0 339.69 306.61
  L 405.41 306.57
  A 0.40 0.40 0.0 0 0 405.78 306.03
  L 314.98 56.75
  A 0.40 0.40 0.0 0 0 314.60 56.49
  L 261.02 56.50
  A 0.40 0.40 0.0 0 0 260.63 57.02
  L 339.31 306.33
  Z
  M 247.16 306.64
  A 0.46 0.45 -81.2 0 1 247.59 306.32
  L 323.53 305.35
  A 0.70 0.70 0.0 0 0 324.19 304.44
  L 309.08 256.52
  A 0.82 0.82 0.0 0 0 308.30 255.95
  L 263.51 255.94
  A 0.53 0.52 -81.4 0 1 263.01 255.26
  L 285.00 182.20
  Q 285.30 181.19 284.99 180.20
  L 258.82 97.30
  Q 258.48 96.22 258.08 97.28
  L 157.09 361.10
  A 0.56 0.55 25.8 0 0 157.33 361.77
  Q 157.59 361.92 157.90 361.92
  Q 193.76 361.95 229.48 361.93
  A 1.28 1.28 0.0 0 0 230.70 361.03
  L 247.16 306.64
  Z
  M 746.64 290.48
  A 0.10 0.09 -46.6 0 1 746.64 290.33
  C 763.71 276.12 773.58 255.45 776.37 233.53
  C 778.20 219.11 778.16 202.51 776.11 188.47
  C 770.23 148.17 741.36 117.58 699.29 115.95
  Q 687.58 115.50 677.38 117.44
  C 644.28 123.75 621.30 149.87 614.98 182.15
  Q 610.27 206.24 613.55 232.74
  Q 616.05 252.90 624.86 268.07
  Q 645.83 304.18 688.49 307.58
  Q 696.76 308.24 704.61 307.25
  A 1.92 1.91 -29.2 0 1 706.07 307.66
  L 745.05 339.18
  A 1.02 1.01 43.6 0 0 746.36 339.15
  L 775.45 313.71
  A 0.26 0.26 0.0 0 0 775.44 313.31
  L 746.64 290.48
  Z
  M 888.75 157.55
  C 900.63 161.27 903.34 172.61 903.99 183.72
  Q 904.02 184.26 904.56 184.26
  L 951.78 184.25
  A 0.37 0.37 0.0 0 0 952.15 183.85
  C 949.98 157.96 936.88 135.70 913.74 124.06
  C 902.90 118.60 890.59 116.23 878.09 115.83
  Q 866.55 115.45 857.83 116.90
  C 833.20 121.00 814.18 136.13 803.37 159.00
  C 793.65 179.59 792.74 202.28 793.92 225.38
  Q 794.44 235.55 796.93 246.58
  C 804.48 279.91 826.81 302.63 860.94 306.98
  C 905.48 312.65 949.38 290.71 951.93 241.25
  A 0.46 0.46 0.0 0 0 951.47 240.76
  L 904.26 240.75
  A 0.55 0.54 -88.9 0 0 903.72 241.28
  C 903.34 253.73 898.70 263.29 885.85 266.61
  Q 875.97 269.15 866.65 267.53
  C 855.64 265.62 849.21 259.73 846.25 249.12
  Q 843.20 238.18 842.88 225.65
  Q 842.52 211.95 842.92 198.47
  Q 843.33 184.65 846.87 173.83
  C 849.73 165.07 856.16 157.62 865.76 156.11
  Q 878.01 154.19 888.75 157.55
  Z
  M 1122.62 260.69
  Q 1129.88 244.36 1131.02 225.09
  Q 1131.76 212.47 1131.07 199.23
  C 1129.26 164.88 1111.53 132.94 1078.12 120.71
  C 1063.40 115.32 1045.68 114.57 1030.98 117.48
  C 998.82 123.85 976.50 148.22 969.32 179.70
  C 966.18 193.49 965.63 206.89 966.28 221.58
  Q 966.70 230.99 968.68 240.94
  C 975.41 274.73 999.04 300.88 1033.71 306.54
  C 1071.58 312.73 1106.71 296.49 1122.62 260.69
  Z
  M 494.82 241.77
  L 514.46 241.76
  A 1.05 1.03 76.5 0 1 515.39 242.34
  L 546.18 304.83
  A 0.66 0.65 -13.0 0 0 546.77 305.19
  L 596.32 305.18
  Q 599.23 305.17 597.91 302.58
  L 560.58 229.34
  A 0.76 0.76 0.0 0 1 560.90 228.32
  Q 566.37 225.43 571.49 221.75
  C 584.17 212.61 590.61 198.72 591.59 183.07
  Q 592.29 171.78 590.99 163.59
  C 585.74 130.58 552.77 118.57 523.64 118.52
  Q 484.73 118.45 446.23 118.50
  A 0.47 0.47 0.0 0 0 445.76 118.97
  L 445.77 304.46
  A 0.70 0.69 -90.0 0 0 446.46 305.16
  L 493.47 305.19
  Q 494.14 305.19 494.14 304.53
  L 494.15 242.43
  Q 494.15 241.77 494.82 241.77
  Z
  M 265.0729 362.1569
  A 16.71 15.57 101.8 0 0 283.7310 348.9840
  A 16.71 15.57 101.8 0 0 271.9071 329.4431
  A 16.71 15.57 101.8 0 0 253.2490 342.6160
  A 16.71 15.57 101.8 0 0 265.0729 362.1569
  Z
  M 393.13 355.76
  C 389.44 357.81 383.94 357.09 380.18 355.63
  Q 379.24 355.26 379.09 356.25
  L 378.43 360.55
  Q 378.32 361.27 379.03 361.43
  C 385.74 362.93 399.91 363.93 400.44 353.44
  C 400.82 345.84 393.98 343.17 388.06 340.99
  Q 385.85 340.17 385.25 338.09
  Q 384.70 336.19 386.43 335.47
  Q 390.55 333.75 397.78 335.98
  A 0.32 0.32 0.0 0 0 398.20 335.72
  L 398.89 330.37
  Q 398.93 330.12 398.68 330.06
  C 391.57 328.32 376.64 328.36 379.02 340.26
  C 380.07 345.51 386.42 347.69 390.87 349.68
  Q 393.55 350.88 394.16 353.38
  A 2.14 2.14 0.0 0 1 393.13 355.76
  Z
  M 437.39 347.66
  A 0.42 0.42 0.0 0 1 436.71 347.90
  L 430.88 343.04
  A 0.42 0.41 51.8 0 1 430.96 342.35
  C 435.58 340.06 437.32 333.93 432.39 330.89
  Q 427.13 327.65 421.15 330.54
  C 415.51 333.27 416.76 339.66 421.32 342.70
  A 0.53 0.53 0.0 0 1 421.24 343.63
  Q 415.78 346.08 414.86 352.01
  C 414.08 356.98 416.69 361.15 421.67 362.03
  Q 430.13 363.52 435.68 356.56
  A 0.70 0.70 0.0 0 1 436.78 356.56
  Q 438.31 358.48 439.18 360.79
  Q 439.45 361.52 440.23 361.53
  L 445.57 361.59
  Q 446.89 361.61 446.30 360.43
  Q 443.80 355.46 440.08 351.61
  Q 439.68 351.19 440.03 350.72
  Q 442.31 347.66 444.08 343.84
  Q 444.47 343.01 443.55 343.00
  L 438.89 342.97
  Q 438.21 342.97 438.09 343.63
  L 437.39 347.66
  Z
  M 529.3064 362.1411
  A 16.70 15.58 101.9 0 0 547.9952 349.0127
  A 16.70 15.58 101.9 0 0 536.1936 329.4589
  A 16.70 15.58 101.9 0 0 517.5048 342.5873
  A 16.70 15.58 101.9 0 0 529.3064 362.1411
  Z
  M 613.18 341.10
  C 615.32 334.40 621.47 333.84 627.38 335.39
  Q 627.59 335.44 627.63 335.23
  L 628.52 330.23
  Q 628.58 329.92 628.26 329.84
  C 620.95 328.03 612.94 329.91 608.63 336.34
  C 601.54 346.92 606.86 361.07 620.06 362.18
  Q 624.85 362.59 629.36 361.51
  Q 629.59 361.46 629.60 361.22
  L 630.01 356.26
  Q 630.03 356.03 629.81 356.10
  C 624.42 357.70 617.72 357.62 614.46 352.44
  Q 611.21 347.28 613.18 341.10
  Z
  M 671.4470 362.1373
  A 16.69 15.58 101.8 0 0 690.1108 348.9860
  A 16.69 15.58 101.8 0 0 678.2730 329.4627
  A 16.69 15.58 101.8 0 0 659.6092 342.6140
  A 16.69 15.58 101.8 0 0 671.4470 362.1373
  Z
  M 708.38 356.07
  Q 702.83 358.25 695.62 355.52
  A 0.59 0.59 0.0 0 0 694.84 355.96
  L 693.98 360.55
  A 0.69 0.69 0.0 0 0 694.49 361.35
  C 700.76 362.88 714.76 363.88 716.13 354.49
  C 717.31 346.39 710.12 343.35 703.87 341.02
  Q 701.91 340.29 701.00 338.57
  A 2.32 2.31 -21.0 0 1 702.48 335.25
  Q 707.58 333.95 713.11 335.89
  A 0.52 0.51 13.6 0 0 713.79 335.48
  L 714.50 330.55
  Q 714.58 330.03 714.05 329.92
  Q 709.01 328.94 704.04 329.35
  C 697.92 329.85 692.99 334.15 694.83 340.85
  C 696.13 345.56 702.10 347.62 706.06 349.38
  Q 708.39 350.42 709.62 352.45
  A 2.51 2.50 -26.1 0 1 708.38 356.07
  Z
  M 307.04 343.75
  C 310.58 341.73 312.64 339.66 311.67 335.14
  C 310.95 331.78 306.53 330.32 303.59 330.16
  Q 297.65 329.84 289.79 330.03
  Q 289.17 330.04 289.20 330.66
  Q 289.85 344.76 289.24 360.93
  Q 289.22 361.46 289.75 361.49
  C 297.68 361.95 315.09 363.04 313.49 350.58
  C 313.01 346.80 310.51 345.46 307.15 344.59
  Q 306.06 344.31 307.04 343.75
  Z
  M 326.46 349.18
  C 329.24 349.05 332.13 349.17 333.69 351.87
  C 335.30 354.65 336.30 357.61 337.12 360.64
  Q 337.35 361.49 338.23 361.51
  L 343.79 361.60
  Q 345.12 361.63 344.53 360.43
  C 342.13 355.59 340.86 349.03 335.88 346.44
  Q 335.21 346.09 335.91 345.82
  Q 342.23 343.42 341.91 336.78
  C 341.65 331.54 335.31 329.99 331.11 330.00
  Q 325.57 330.01 319.70 329.98
  Q 319.06 329.98 319.09 330.61
  Q 319.80 346.71 319.08 361.05
  A 0.45 0.44 -88.8 0 0 319.52 361.52
  L 325.43 361.55
  Q 325.91 361.55 325.90 361.07
  L 325.69 350.00
  Q 325.67 349.22 326.46 349.18
  Z
  M 354.73 352.61
  A 0.47 0.47 0.0 0 1 355.18 352.26
  L 365.54 352.28
  A 0.47 0.47 0.0 0 1 366.00 352.62
  L 368.39 361.15
  A 0.47 0.47 0.0 0 0 368.83 361.50
  L 375.66 361.61
  A 0.47 0.47 0.0 0 0 376.11 360.98
  L 365.46 330.30
  A 0.47 0.47 0.0 0 0 365.01 329.98
  L 357.13 330.00
  A 0.47 0.47 0.0 0 0 356.70 330.30
  L 345.18 360.81
  A 0.47 0.47 0.0 0 0 345.63 361.44
  L 352.09 361.38
  A 0.47 0.47 0.0 0 0 352.54 361.03
  L 354.73 352.61
  Z
  M 468.54 349.99
  C 476.31 350.20 484.60 347.43 484.46 338.16
  C 484.37 332.79 479.09 330.31 474.49 330.11
  Q 468.73 329.86 461.55 330.02
  A 0.27 0.26 -2.2 0 0 461.29 330.29
  Q 461.78 345.40 461.30 360.84
  Q 461.27 361.53 461.96 361.53
  L 467.57 361.60
  Q 468.24 361.60 468.21 360.93
  L 467.84 350.70
  Q 467.81 349.97 468.54 349.99
  Z
  M 505.83 345.69
  Q 512.78 343.05 511.40 335.36
  C 510.77 331.85 505.63 330.25 502.64 330.13
  Q 496.43 329.89 489.36 330.02
  Q 488.75 330.03 488.78 330.64
  Q 489.36 346.15 488.79 361.05
  Q 488.77 361.54 489.26 361.54
  L 495.17 361.56
  Q 495.65 361.56 495.64 361.08
  L 495.42 350.00
  Q 495.40 349.39 496.00 349.29
  C 504.60 347.88 504.94 355.81 507.43 361.39
  A 0.37 0.36 77.1 0 0 507.76 361.60
  L 514.48 361.50
  Q 514.67 361.50 514.60 361.31
  Q 512.62 356.48 510.42 351.65
  Q 508.89 348.31 505.77 346.42
  Q 505.06 345.99 505.83 345.69
  Z
  M 564.05 344.87
  L 557.91 330.58
  Q 557.66 330.00 557.03 330.00
  L 550.78 330.01
  A 0.58 0.58 0.0 0 0 550.28 330.88
  C 553.56 336.50 557.64 342.39 559.61 348.43
  C 560.84 352.24 559.90 357.01 559.99 361.09
  Q 560.00 361.55 560.47 361.56
  L 566.27 361.60
  A 0.48 0.48 0.0 0 0 566.76 361.08
  Q 566.51 357.01 566.40 352.85
  C 566.31 349.71 567.43 346.55 569.03 344.00
  Q 573.18 337.36 577.47 330.21
  A 0.06 0.05 -73.3 0 0 577.43 330.12
  Q 571.89 329.85 570.75 330.14
  Q 570.69 330.15 570.66 330.21
  Q 567.33 337.48 564.36 344.86
  Q 564.21 345.24 564.05 344.87
  Z
  M 588.15 356.12
  A 0.43 0.43 0.0 0 1 587.71 355.70
  L 587.52 348.90
  A 0.43 0.43 0.0 0 1 587.96 348.46
  L 598.05 348.60
  A 0.43 0.43 0.0 0 0 598.49 348.17
  L 598.49 343.08
  A 0.43 0.43 0.0 0 0 598.05 342.65
  L 587.98 342.90
  A 0.43 0.43 0.0 0 1 587.54 342.47
  L 587.48 335.92
  A 0.43 0.43 0.0 0 1 587.93 335.48
  L 600.20 335.87
  A 0.43 0.43 0.0 0 0 600.65 335.45
  L 600.84 330.45
  A 0.43 0.43 0.0 0 0 600.41 330.00
  L 581.47 330.00
  A 0.43 0.43 0.0 0 0 581.04 330.43
  L 581.07 361.11
  A 0.43 0.43 0.0 0 0 581.50 361.54
  L 601.33 361.57
  A 0.43 0.43 0.0 0 0 601.76 361.15
  L 601.84 356.20
  A 0.43 0.43 0.0 0 0 601.40 355.76
  L 588.15 356.12
  Z
  M 640.81 335.36
  A 0.47 0.47 0.0 0 1 641.30 335.83
  L 641.15 361.07
  A 0.47 0.47 0.0 0 0 641.62 361.54
  L 647.28 361.56
  A 0.47 0.47 0.0 0 0 647.76 361.08
  L 647.55 336.07
  A 0.47 0.47 0.0 0 1 648.04 335.60
  L 656.37 335.93
  A 0.47 0.47 0.0 0 0 656.86 335.49
  L 657.15 330.51
  A 0.47 0.47 0.0 0 0 656.68 330.01
  L 632.39 329.99
  A 0.47 0.47 0.0 0 0 631.92 330.45
  L 631.77 335.23
  A 0.47 0.47 0.0 0 0 632.26 335.71
  L 640.81 335.36
  Z"
/>
<path fill="#e13426" d="
  M 339.31 306.33
  L 260.63 57.02
  A 0.40 0.40 0.0 0 1 261.02 56.50
  L 314.60 56.49
  A 0.40 0.40 0.0 0 1 314.98 56.75
  L 405.78 306.03
  A 0.40 0.40 0.0 0 1 405.41 306.57
  L 339.69 306.61
  A 0.40 0.40 0.0 0 1 339.31 306.33
  Z"
/>
<path fill="#ef8166" d="
  M 247.16 306.64
  L 230.70 361.03
  A 1.28 1.28 0.0 0 1 229.48 361.93
  Q 193.76 361.95 157.90 361.92
  Q 157.59 361.92 157.33 361.77
  A 0.56 0.55 25.8 0 1 157.09 361.10
  L 258.08 97.28
  Q 258.48 96.22 258.82 97.30
  L 284.99 180.20
  Q 285.30 181.19 285.00 182.20
  L 263.01 255.26
  A 0.53 0.52 -81.4 0 0 263.51 255.94
  L 308.30 255.95
  A 0.82 0.82 0.0 0 1 309.08 256.52
  L 324.19 304.44
  A 0.70 0.70 0.0 0 1 323.53 305.35
  L 247.59 306.32
  A 0.46 0.45 -81.2 0 0 247.16 306.64
  Z"
/>
<path fill="#165686" d="
  M 746.64 290.48
  L 775.44 313.31
  A 0.26 0.26 0.0 0 1 775.45 313.71
  L 746.36 339.15
  A 1.02 1.01 43.6 0 1 745.05 339.18
  L 706.07 307.66
  A 1.92 1.91 -29.2 0 0 704.61 307.25
  Q 696.76 308.24 688.49 307.58
  Q 645.83 304.18 624.86 268.07
  Q 616.05 252.90 613.55 232.74
  Q 610.27 206.24 614.98 182.15
  C 621.30 149.87 644.28 123.75 677.38 117.44
  Q 687.58 115.50 699.29 115.95
  C 741.36 117.58 770.23 148.17 776.11 188.47
  C 778.16 202.51 778.20 219.11 776.37 233.53
  C 773.58 255.45 763.71 276.12 746.64 290.33
  A 0.10 0.09 -46.6 0 0 746.64 290.48
  Z
  M 667.65 172.82
  Q 664.79 178.97 663.84 183.85
  Q 658.64 210.53 663.51 237.44
  C 666.25 252.58 674.93 266.20 691.15 268.12
  C 714.49 270.90 725.15 250.95 727.46 230.98
  Q 729.98 209.28 726.99 189.15
  Q 725.35 178.14 719.86 169.11
  C 714.28 159.91 705.48 155.37 694.67 155.42
  Q 675.68 155.52 667.65 172.82
  Z"
/>
<path fill="#165686" d="
  M 888.75 157.55
  Q 878.01 154.19 865.76 156.11
  C 856.16 157.62 849.73 165.07 846.87 173.83
  Q 843.33 184.65 842.92 198.47
  Q 842.52 211.95 842.88 225.65
  Q 843.20 238.18 846.25 249.12
  C 849.21 259.73 855.64 265.62 866.65 267.53
  Q 875.97 269.15 885.85 266.61
  C 898.70 263.29 903.34 253.73 903.72 241.28
  A 0.55 0.54 -88.9 0 1 904.26 240.75
  L 951.47 240.76
  A 0.46 0.46 0.0 0 1 951.93 241.25
  C 949.38 290.71 905.48 312.65 860.94 306.98
  C 826.81 302.63 804.48 279.91 796.93 246.58
  Q 794.44 235.55 793.92 225.38
  C 792.74 202.28 793.65 179.59 803.37 159.00
  C 814.18 136.13 833.20 121.00 857.83 116.90
  Q 866.55 115.45 878.09 115.83
  C 890.59 116.23 902.90 118.60 913.74 124.06
  C 936.88 135.70 949.98 157.96 952.15 183.85
  A 0.37 0.37 0.0 0 1 951.78 184.25
  L 904.56 184.26
  Q 904.02 184.26 903.99 183.72
  C 903.34 172.61 900.63 161.27 888.75 157.55
  Z"
/>
<path fill="#165686" d="
  M 1122.62 260.69
  C 1106.71 296.49 1071.58 312.73 1033.71 306.54
  C 999.04 300.88 975.41 274.73 968.68 240.94
  Q 966.70 230.99 966.28 221.58
  C 965.63 206.89 966.18 193.49 969.32 179.70
  C 976.50 148.22 998.82 123.85 1030.98 117.48
  C 1045.68 114.57 1063.40 115.32 1078.12 120.71
  C 1111.53 132.94 1129.26 164.88 1131.07 199.23
  Q 1131.76 212.47 1131.02 225.09
  Q 1129.88 244.36 1122.62 260.69
  Z
  M 1042.96 155.88
  C 1026.58 158.16 1019.73 173.03 1017.05 187.56
  Q 1015.49 196.01 1015.35 203.32
  C 1015.14 213.59 1014.99 223.97 1016.77 233.97
  C 1019.08 246.98 1024.28 261.37 1037.77 266.35
  C 1049.53 270.70 1062.90 268.15 1071.10 258.20
  C 1077.17 250.82 1080.40 239.92 1081.36 230.74
  Q 1083.35 211.78 1081.43 193.07
  C 1080.61 185.07 1078.10 175.95 1073.80 169.13
  Q 1063.63 153.01 1042.96 155.88
  Z"
/>
<path fill="#165686" d="
  M 494.15 242.43
  L 494.14 304.53
  Q 494.14 305.19 493.47 305.19
  L 446.46 305.16
  A 0.70 0.69 90.0 0 1 445.77 304.46
  L 445.76 118.97
  A 0.47 0.47 0.0 0 1 446.23 118.50
  Q 484.73 118.45 523.64 118.52
  C 552.77 118.57 585.74 130.58 590.99 163.59
  Q 592.29 171.78 591.59 183.07
  C 590.61 198.72 584.17 212.61 571.49 221.75
  Q 566.37 225.43 560.90 228.32
  A 0.76 0.76 0.0 0 0 560.58 229.34
  L 597.91 302.58
  Q 599.23 305.17 596.32 305.18
  L 546.77 305.19
  A 0.66 0.65 -13.0 0 1 546.18 304.83
  L 515.39 242.34
  A 1.05 1.03 76.5 0 0 514.46 241.76
  L 494.82 241.77
  Q 494.15 241.77 494.15 242.43
  Z
  M 494.21 157.66
  L 494.05 202.34
  A 0.37 0.37 0.0 0 0 494.42 202.71
  L 522.45 202.81
  A 21.16 20.60 0.2 0 0 543.68 182.29
  L 543.70 178.07
  A 21.16 20.60 0.2 0 0 522.61 157.39
  L 494.58 157.29
  A 0.37 0.37 0.0 0 0 494.21 157.66
  Z"
/>
<path fill="#ffffff" d="
  M 667.65 172.82
  Q 675.68 155.52 694.67 155.42
  C 705.48 155.37 714.28 159.91 719.86 169.11
  Q 725.35 178.14 726.99 189.15
  Q 729.98 209.28 727.46 230.98
  C 725.15 250.95 714.49 270.90 691.15 268.12
  C 674.93 266.20 666.25 252.58 663.51 237.44
  Q 658.64 210.53 663.84 183.85
  Q 664.79 178.97 667.65 172.82
  Z"
/>
<path fill="#ffffff" d="
  M 1017.05 187.56
  C 1019.73 173.03 1026.58 158.16 1042.96 155.88
  Q 1063.63 153.01 1073.80 169.13
  C 1078.10 175.95 1080.61 185.07 1081.43 193.07
  Q 1083.35 211.78 1081.36 230.74
  C 1080.40 239.92 1077.17 250.82 1071.10 258.20
  C 1062.90 268.15 1049.53 270.70 1037.77 266.35
  C 1024.28 261.37 1019.08 246.98 1016.77 233.97
  C 1014.99 223.97 1015.14 213.59 1015.35 203.32
  Q 1015.49 196.01 1017.05 187.56
  Z"
/>
<path fill="#ffffff" d="
  M 494.21 157.66
  A 0.37 0.37 0.0 0 1 494.58 157.29
  L 522.61 157.39
  A 21.16 20.60 0.2 0 1 543.70 178.07
  L 543.68 182.29
  A 21.16 20.60 0.2 0 1 522.45 202.81
  L 494.42 202.71
  A 0.37 0.37 0.0 0 1 494.05 202.34
  L 494.21 157.66
  Z"
/>
<path fill="#165686" d="
  M 265.0729 362.1569
  A 16.71 15.57 101.8 0 1 253.2490 342.6160
  A 16.71 15.57 101.8 0 1 271.9071 329.4431
  A 16.71 15.57 101.8 0 1 283.7310 348.9840
  A 16.71 15.57 101.8 0 1 265.0729 362.1569
  Z
  M 268.7439 357.0067
  A 11.21 8.84 88.6 0 0 277.3074 345.5840
  A 11.21 8.84 88.6 0 0 268.1961 334.5933
  A 11.21 8.84 88.6 0 0 259.6326 346.0160
  A 11.21 8.84 88.6 0 0 268.7439 357.0067
  Z"
/>
<path fill="#165686" d="
  M 393.13 355.76
  A 2.14 2.14 0.0 0 0 394.16 353.38
  Q 393.55 350.88 390.87 349.68
  C 386.42 347.69 380.07 345.51 379.02 340.26
  C 376.64 328.36 391.57 328.32 398.68 330.06
  Q 398.93 330.12 398.89 330.37
  L 398.20 335.72
  A 0.32 0.32 0.0 0 1 397.78 335.98
  Q 390.55 333.75 386.43 335.47
  Q 384.70 336.19 385.25 338.09
  Q 385.85 340.17 388.06 340.99
  C 393.98 343.17 400.82 345.84 400.44 353.44
  C 399.91 363.93 385.74 362.93 379.03 361.43
  Q 378.32 361.27 378.43 360.55
  L 379.09 356.25
  Q 379.24 355.26 380.18 355.63
  C 383.94 357.09 389.44 357.81 393.13 355.76
  Z"
/>
<path fill="#165686" d="
  M 437.39 347.66
  L 438.09 343.63
  Q 438.21 342.97 438.89 342.97
  L 443.55 343.00
  Q 444.47 343.01 444.08 343.84
  Q 442.31 347.66 440.03 350.72
  Q 439.68 351.19 440.08 351.61
  Q 443.80 355.46 446.30 360.43
  Q 446.89 361.61 445.57 361.59
  L 440.23 361.53
  Q 439.45 361.52 439.18 360.79
  Q 438.31 358.48 436.78 356.56
  A 0.70 0.70 0.0 0 0 435.68 356.56
  Q 430.13 363.52 421.67 362.03
  C 416.69 361.15 414.08 356.98 414.86 352.01
  Q 415.78 346.08 421.24 343.63
  A 0.53 0.53 0.0 0 0 421.32 342.70
  C 416.76 339.66 415.51 333.27 421.15 330.54
  Q 427.13 327.65 432.39 330.89
  C 437.32 333.93 435.58 340.06 430.96 342.35
  A 0.42 0.41 51.8 0 0 430.88 343.04
  L 436.71 347.90
  A 0.42 0.42 0.0 0 0 437.39 347.66
  Z
  M 428.3414 340.1825
  A 3.84 3.44 63.7 0 0 429.7239 335.2158
  A 3.84 3.44 63.7 0 0 424.9386 333.2975
  A 3.84 3.44 63.7 0 0 423.5561 338.2642
  A 3.84 3.44 63.7 0 0 428.3414 340.1825
  Z
  M 432.91 350.99
  L 425.92 345.41
  A 1.76 1.76 0.0 0 0 423.44 345.69
  L 423.30 345.87
  A 8.04 6.13 -51.4 0 0 423.07 355.98
  L 423.23 356.11
  A 8.04 6.13 -51.4 0 0 433.03 353.65
  L 433.18 353.46
  A 1.76 1.76 0.0 0 0 432.91 350.99
  Z"
/>
<path fill="#165686" d="
  M 529.3064 362.1411
  A 16.70 15.58 101.9 0 1 517.5048 342.5873
  A 16.70 15.58 101.9 0 1 536.1936 329.4589
  A 16.70 15.58 101.9 0 1 547.9952 349.0127
  A 16.70 15.58 101.9 0 1 529.3064 362.1411
  Z
  M 533.0041 356.9971
  A 11.20 8.84 88.7 0 0 541.5877 345.5994
  A 11.20 8.84 88.7 0 0 532.4959 334.6029
  A 11.20 8.84 88.7 0 0 523.9123 346.0006
  A 11.20 8.84 88.7 0 0 533.0041 356.9971
  Z"
/>
<path fill="#165686" d="
  M 627.38 335.39
  C 621.47 333.84 615.32 334.40 613.18 341.10
  Q 611.21 347.28 614.46 352.44
  C 617.72 357.62 624.42 357.70 629.81 356.10
  Q 630.03 356.03 630.01 356.26
  L 629.60 361.22
  Q 629.59 361.46 629.36 361.51
  Q 624.85 362.59 620.06 362.18
  C 606.86 361.07 601.54 346.92 608.63 336.34
  C 612.94 329.91 620.95 328.03 628.26 329.84
  Q 628.58 329.92 628.52 330.23
  L 627.63 335.23
  Q 627.59 335.44 627.38 335.39
  Z"
/>
<path fill="#165686" d="
  M 671.4470 362.1373
  A 16.69 15.58 101.8 0 1 659.6092 342.6140
  A 16.69 15.58 101.8 0 1 678.2730 329.4627
  A 16.69 15.58 101.8 0 1 690.1108 348.9860
  A 16.69 15.58 101.8 0 1 671.4470 362.1373
  Z
  M 675.0950 357.0175
  A 11.22 8.84 88.8 0 0 683.6981 345.6149
  A 11.22 8.84 88.8 0 0 674.6250 334.5825
  A 11.22 8.84 88.8 0 0 666.0219 345.9851
  A 11.22 8.84 88.8 0 0 675.0950 357.0175
  Z"
/>
<path fill="#165686" d="
  M 708.38 356.07
  A 2.51 2.50 -26.1 0 0 709.62 352.45
  Q 708.39 350.42 706.06 349.38
  C 702.10 347.62 696.13 345.56 694.83 340.85
  C 692.99 334.15 697.92 329.85 704.04 329.35
  Q 709.01 328.94 714.05 329.92
  Q 714.58 330.03 714.50 330.55
  L 713.79 335.48
  A 0.52 0.51 13.6 0 1 713.11 335.89
  Q 707.58 333.95 702.48 335.25
  A 2.32 2.31 -21.0 0 0 701.00 338.57
  Q 701.91 340.29 703.87 341.02
  C 710.12 343.35 717.31 346.39 716.13 354.49
  C 714.76 363.88 700.76 362.88 694.49 361.35
  A 0.69 0.69 0.0 0 1 693.98 360.55
  L 694.84 355.96
  A 0.59 0.59 0.0 0 1 695.62 355.52
  Q 702.83 358.25 708.38 356.07
  Z"
/>
<path fill="#165686" d="
  M 307.15 344.59
  C 310.51 345.46 313.01 346.80 313.49 350.58
  C 315.09 363.04 297.68 361.95 289.75 361.49
  Q 289.22 361.46 289.24 360.93
  Q 289.85 344.76 289.20 330.66
  Q 289.17 330.04 289.79 330.03
  Q 297.65 329.84 303.59 330.16
  C 306.53 330.32 310.95 331.78 311.67 335.14
  C 312.64 339.66 310.58 341.73 307.04 343.75
  Q 306.06 344.31 307.15 344.59
  Z
  M 295.51 336.21
  L 295.61 342.26
  A 0.72 0.72 0.0 0 0 296.35 342.97
  L 300.30 342.90
  A 5.09 3.45 -1.0 0 0 305.32 339.36
  L 305.31 338.76
  A 5.09 3.45 -1.0 0 0 300.16 335.40
  L 296.22 335.47
  A 0.72 0.72 0.0 0 0 295.51 336.21
  Z
  M 295.73 348.30
  L 295.75 355.62
  A 0.43 0.43 0.0 0 0 296.18 356.05
  L 300.94 356.03
  A 6.05 3.64 -0.2 0 0 306.98 352.37
  L 306.98 351.47
  A 6.05 3.64 -0.2 0 0 300.92 347.85
  L 296.16 347.87
  A 0.43 0.43 0.0 0 0 295.73 348.30
  Z"
/>
<path fill="#165686" d="
  M 325.69 350.00
  L 325.90 361.07
  Q 325.91 361.55 325.43 361.55
  L 319.52 361.52
  A 0.45 0.44 -88.8 0 1 319.08 361.05
  Q 319.80 346.71 319.09 330.61
  Q 319.06 329.98 319.70 329.98
  Q 325.57 330.01 331.11 330.00
  C 335.31 329.99 341.65 331.54 341.91 336.78
  Q 342.23 343.42 335.91 345.82
  Q 335.21 346.09 335.88 346.44
  C 340.86 349.03 342.13 355.59 344.53 360.43
  Q 345.12 361.63 343.79 361.60
  L 338.23 361.51
  Q 337.35 361.49 337.12 360.64
  C 336.30 357.61 335.30 354.65 333.69 351.87
  C 332.13 349.17 329.24 349.05 326.46 349.18
  Q 325.67 349.22 325.69 350.00
  Z
  M 325.61 335.96
  L 325.77 344.19
  A 0.49 0.49 0.0 0 0 326.27 344.68
  L 330.29 344.60
  A 5.43 4.15 -1.1 0 0 335.64 340.34
  L 335.62 339.42
  A 5.43 4.15 -1.1 0 0 330.11 335.38
  L 326.09 335.46
  A 0.49 0.49 0.0 0 0 325.61 335.96
  Z"
/>
<path fill="#165686" d="
  M 354.73 352.61
  L 352.54 361.03
  A 0.47 0.47 0.0 0 1 352.09 361.38
  L 345.63 361.44
  A 0.47 0.47 0.0 0 1 345.18 360.81
  L 356.70 330.30
  A 0.47 0.47 0.0 0 1 357.13 330.00
  L 365.01 329.98
  A 0.47 0.47 0.0 0 1 365.46 330.30
  L 376.11 360.98
  A 0.47 0.47 0.0 0 1 375.66 361.61
  L 368.83 361.50
  A 0.47 0.47 0.0 0 1 368.39 361.15
  L 366.00 352.62
  A 0.47 0.47 0.0 0 0 365.54 352.28
  L 355.18 352.26
  A 0.47 0.47 0.0 0 0 354.73 352.61
  Z
  M 356.27 346.55
  A 0.31 0.31 0.0 0 0 356.57 346.96
  L 363.93 347.03
  A 0.31 0.31 0.0 0 0 364.22 346.63
  L 360.67 335.09
  A 0.31 0.31 0.0 0 0 360.07 335.09
  L 356.27 346.55
  Z"
/>
<path fill="#165686" d="
  M 467.84 350.70
  L 468.21 360.93
  Q 468.24 361.60 467.57 361.60
  L 461.96 361.53
  Q 461.27 361.53 461.30 360.84
  Q 461.78 345.40 461.29 330.29
  A 0.27 0.26 -2.2 0 1 461.55 330.02
  Q 468.73 329.86 474.49 330.11
  C 479.09 330.31 484.37 332.79 484.46 338.16
  C 484.60 347.43 476.31 350.20 468.54 349.99
  Q 467.81 349.97 467.84 350.70
  Z
  M 467.71 336.11
  L 467.83 344.65
  A 0.69 0.69 0.0 0 0 468.53 345.33
  L 472.03 345.28
  A 6.19 4.73 -0.8 0 0 478.15 340.47
  L 478.15 340.01
  A 6.19 4.73 -0.8 0 0 471.89 335.36
  L 468.39 335.41
  A 0.69 0.69 0.0 0 0 467.71 336.11
  Z"
/>
<path fill="#165686" d="
  M 505.77 346.42
  Q 508.89 348.31 510.42 351.65
  Q 512.62 356.48 514.60 361.31
  Q 514.67 361.50 514.48 361.50
  L 507.76 361.60
  A 0.37 0.36 77.1 0 1 507.43 361.39
  C 504.94 355.81 504.60 347.88 496.00 349.29
  Q 495.40 349.39 495.42 350.00
  L 495.64 361.08
  Q 495.65 361.56 495.17 361.56
  L 489.26 361.54
  Q 488.77 361.54 488.79 361.05
  Q 489.36 346.15 488.78 330.64
  Q 488.75 330.03 489.36 330.02
  Q 496.43 329.89 502.64 330.13
  C 505.63 330.25 510.77 331.85 511.40 335.36
  Q 512.78 343.05 505.83 345.69
  Q 505.06 345.99 505.77 346.42
  Z
  M 495.20 336.24
  L 495.50 344.06
  A 0.72 0.72 0.0 0 0 496.25 344.75
  L 500.18 344.60
  A 5.29 4.09 -2.2 0 0 505.31 340.31
  L 505.27 339.23
  A 5.29 4.09 -2.2 0 0 499.82 335.35
  L 495.90 335.50
  A 0.72 0.72 0.0 0 0 495.20 336.24
  Z"
/>
<path fill="#165686" d="
  M 564.36 344.86
  Q 567.33 337.48 570.66 330.21
  Q 570.69 330.15 570.75 330.14
  Q 571.89 329.85 577.43 330.12
  A 0.06 0.05 -73.3 0 1 577.47 330.21
  Q 573.18 337.36 569.03 344.00
  C 567.43 346.55 566.31 349.71 566.40 352.85
  Q 566.51 357.01 566.76 361.08
  A 0.48 0.48 0.0 0 1 566.27 361.60
  L 560.47 361.56
  Q 560.00 361.55 559.99 361.09
  C 559.90 357.01 560.84 352.24 559.61 348.43
  C 557.64 342.39 553.56 336.50 550.28 330.88
  A 0.58 0.58 0.0 0 1 550.78 330.01
  L 557.03 330.00
  Q 557.66 330.00 557.91 330.58
  L 564.05 344.87
  Q 564.21 345.24 564.36 344.86
  Z"
/>
<path fill="#165686" d="
  M 588.15 356.12
  L 601.40 355.76
  A 0.43 0.43 0.0 0 1 601.84 356.20
  L 601.76 361.15
  A 0.43 0.43 0.0 0 1 601.33 361.57
  L 581.50 361.54
  A 0.43 0.43 0.0 0 1 581.07 361.11
  L 581.04 330.43
  A 0.43 0.43 0.0 0 1 581.47 330.00
  L 600.41 330.00
  A 0.43 0.43 0.0 0 1 600.84 330.45
  L 600.65 335.45
  A 0.43 0.43 0.0 0 1 600.20 335.87
  L 587.93 335.48
  A 0.43 0.43 0.0 0 0 587.48 335.92
  L 587.54 342.47
  A 0.43 0.43 0.0 0 0 587.98 342.90
  L 598.05 342.65
  A 0.43 0.43 0.0 0 1 598.49 343.08
  L 598.49 348.17
  A 0.43 0.43 0.0 0 1 598.05 348.60
  L 587.96 348.46
  A 0.43 0.43 0.0 0 0 587.52 348.90
  L 587.71 355.70
  A 0.43 0.43 0.0 0 0 588.15 356.12
  Z"
/>
<path fill="#165686" d="
  M 640.81 335.36
  L 632.26 335.71
  A 0.47 0.47 0.0 0 1 631.77 335.23
  L 631.92 330.45
  A 0.47 0.47 0.0 0 1 632.39 329.99
  L 656.68 330.01
  A 0.47 0.47 0.0 0 1 657.15 330.51
  L 656.86 335.49
  A 0.47 0.47 0.0 0 1 656.37 335.93
  L 648.04 335.60
  A 0.47 0.47 0.0 0 0 647.55 336.07
  L 647.76 361.08
  A 0.47 0.47 0.0 0 1 647.28 361.56
  L 641.62 361.54
  A 0.47 0.47 0.0 0 1 641.15 361.07
  L 641.30 335.83
  A 0.47 0.47 0.0 0 0 640.81 335.36
  Z"
/>
<ellipse fill="#ffffff" cx="0.00" cy="0.00" transform="translate(426.64,336.74) rotate(63.7)" rx="3.84" ry="3.44"/>
<path fill="#ffffff" d="
  M 356.27 346.55
  L 360.07 335.09
  A 0.31 0.31 0.0 0 1 360.67 335.09
  L 364.22 346.63
  A 0.31 0.31 0.0 0 1 363.93 347.03
  L 356.57 346.96
  A 0.31 0.31 0.0 0 1 356.27 346.55
  Z"
/>
<ellipse fill="#ffffff" cx="0.00" cy="0.00" transform="translate(268.47,345.80) rotate(88.6)" rx="11.21" ry="8.84"/>
<ellipse fill="#ffffff" cx="0.00" cy="0.00" transform="translate(532.75,345.80) rotate(88.7)" rx="11.20" ry="8.84"/>
<ellipse fill="#ffffff" cx="0.00" cy="0.00" transform="translate(674.86,345.80) rotate(88.8)" rx="11.22" ry="8.84"/>
<path fill="#ffffff" d="
  M 495.20 336.24
  A 0.72 0.72 0.0 0 1 495.90 335.50
  L 499.82 335.35
  A 5.29 4.09 -2.2 0 1 505.27 339.23
  L 505.31 340.31
  A 5.29 4.09 -2.2 0 1 500.18 344.60
  L 496.25 344.75
  A 0.72 0.72 0.0 0 1 495.50 344.06
  L 495.20 336.24
  Z"
/>
<path fill="#ffffff" d="
  M 295.51 336.21
  A 0.72 0.72 0.0 0 1 296.22 335.47
  L 300.16 335.40
  A 5.09 3.45 -1.0 0 1 305.31 338.76
  L 305.32 339.36
  A 5.09 3.45 -1.0 0 1 300.30 342.90
  L 296.35 342.97
  A 0.72 0.72 0.0 0 1 295.61 342.26
  L 295.51 336.21
  Z"
/>
<path fill="#ffffff" d="
  M 325.61 335.96
  A 0.49 0.49 0.0 0 1 326.09 335.46
  L 330.11 335.38
  A 5.43 4.15 -1.1 0 1 335.62 339.42
  L 335.64 340.34
  A 5.43 4.15 -1.1 0 1 330.29 344.60
  L 326.27 344.68
  A 0.49 0.49 0.0 0 1 325.77 344.19
  L 325.61 335.96
  Z"
/>
<path fill="#ffffff" d="
  M 467.71 336.11
  A 0.69 0.69 0.0 0 1 468.39 335.41
  L 471.89 335.36
  A 6.19 4.73 -0.8 0 1 478.15 340.01
  L 478.15 340.47
  A 6.19 4.73 -0.8 0 1 472.03 345.28
  L 468.53 345.33
  A 0.69 0.69 0.0 0 1 467.83 344.65
  L 467.71 336.11
  Z"
/>
<path fill="#ffffff" d="
  M 432.91 350.99
  A 1.76 1.76 0.0 0 1 433.18 353.46
  L 433.03 353.65
  A 8.04 6.13 -51.4 0 1 423.23 356.11
  L 423.07 355.98
  A 8.04 6.13 -51.4 0 1 423.30 345.87
  L 423.44 345.69
  A 1.76 1.76 0.0 0 1 425.92 345.41
  L 432.91 350.99
  Z"
/>
<path fill="#ffffff" d="
  M 295.73 348.30
  A 0.43 0.43 0.0 0 1 296.16 347.87
  L 300.92 347.85
  A 6.05 3.64 -0.2 0 1 306.98 351.47
  L 306.98 352.37
  A 6.05 3.64 -0.2 0 1 300.94 356.03
  L 296.18 356.05
  A 0.43 0.43 0.0 0 1 295.75 355.62
  L 295.73 348.30
  Z"
/>
</svg>
