<?xml version="1.0" encoding="UTF-8" standalone="no"?>
<!DOCTYPE svg PUBLIC "-//W3C//DTD SVG 1.1//EN" "http://www.w3.org/Graphics/SVG/1.1/DTD/svg11.dtd">
<svg xmlns="http://www.w3.org/2000/svg" version="1.1" viewBox="0.00 0.00 1221.00 423.00">
<g stroke-width="2.00" fill="none" stroke-linecap="butt">
<path stroke="#7a98b6" vector-effect="non-scaling-stroke" d="
  M 870.81 180.25
  L 917.88 180.03
  A 0.92 0.92 0.0 0 0 918.79 179.07
  Q 918.59 174.14 917.63 169.88
  C 913.23 150.32 903.60 134.46 886.88 123.65
  Q 880.45 119.50 873.26 116.95
  Q 864.85 113.96 856.70 112.89
  Q 848.09 111.75 836.27 112.00
  Q 810.19 112.53 791.11 128.23
  C 780.24 137.18 772.14 149.41 767.37 162.63
  Q 762.95 174.86 761.32 189.54
  Q 760.88 193.54 760.85 197.81
  Q 760.78 209.21 760.88 219.14
  Q 760.98 228.43 764.40 244.05
  Q 766.64 254.34 772.23 265.08
  C 781.54 282.98 797.52 295.75 817.19 300.79
  Q 828.71 303.75 839.85 303.77
  Q 854.33 303.80 867.35 300.33
  Q 880.00 296.96 889.78 290.31
  Q 916.41 272.20 918.90 238.33
  A 1.38 1.37 2.1 0 0 917.52 236.86
  L 872.35 236.86
  A 1.71 1.70 90.0 0 0 870.65 238.57
  Q 870.65 244.33 868.48 249.73
  C 863.05 263.29 845.91 265.84 833.04 263.57
  Q 822.60 261.73 817.55 254.51
  Q 814.17 249.68 812.77 244.05
  Q 810.25 233.95 809.88 223.29
  Q 809.39 209.02 809.81 194.82
  Q 810.03 187.23 810.87 182.25
  Q 812.00 175.48 813.77 169.83
  C 816.76 160.27 823.55 153.52 833.50 151.81
  Q 840.02 150.68 850.31 152.12
  C 859.70 153.44 866.37 158.35 869.22 167.76
  Q 870.96 173.53 870.52 178.39"
/>
<path stroke="#7a98b6" vector-effect="non-scaling-stroke" d="
  M 462.72 237.89
  Q 462.60 237.87 462.62 237.67
  Q 462.62 237.66 462.63 237.66
  L 480.84 237.58
  A 2.16 2.15 -13.0 0 1 482.78 238.79
  L 512.88 300.11
  A 1.54 1.53 -13.0 0 0 514.26 300.97
  L 563.65 300.97
  A 1.45 1.44 -13.5 0 0 564.94 298.87
  L 527.57 225.67
  Q 527.12 224.80 527.95 224.29
  C 532.59 221.39 537.53 218.76 541.63 215.17
  Q 553.88 204.41 557.37 187.78
  Q 558.47 182.52 558.61 175.55
  Q 558.76 167.86 558.30 163.02
  Q 556.01 138.78 534.53 125.51
  Q 524.81 119.51 512.98 117.07
  Q 503.27 115.07 495.46 114.79
  Q 485.10 114.42 474.59 114.64
  C 454.21 115.05 433.58 114.67 413.48 114.83
  Q 413.02 114.83 413.02 115.28
  L 413.04 300.07
  A 0.78 0.78 0.0 0 0 413.82 300.85
  L 459.75 300.99
  A 1.24 1.24 0.0 0 0 461.00 299.75
  L 460.99 238.72
  A 0.84 0.83 71.2 0 1 461.31 238.06
  Q 462.36 237.21 462.29 237.97"
/>
<path stroke="#7a98b6" vector-effect="non-scaling-stroke" d="
  M 286.11 326.03
  L 286.20 355.95
  Q 286.20 357.45 287.69 357.47
  L 291.49 357.54
  Q 293.05 357.57 292.99 356.01
  L 292.57 346.54
  A 1.26 1.26 0.0 0 1 293.61 345.24
  Q 299.56 344.20 301.77 349.63
  Q 303.04 352.74 304.07 356.03
  C 304.49 357.36 305.72 357.48 306.90 357.56
  Q 309.37 357.73 311.45 357.10
  Q 312.01 356.93 312.57 357.13
  C 314.16 357.71 315.76 357.44 317.44 357.53
  Q 319.29 357.63 319.63 355.79
  Q 320.31 352.14 321.50 349.03
  A 1.32 1.32 0.0 0 1 322.74 348.17
  L 331.74 348.14
  A 1.73 1.73 0.0 0 1 333.44 349.48
  L 335.01 356.18
  Q 335.32 357.50 336.68 357.51
  L 341.79 357.52
  Q 343.24 357.53 342.77 356.15
  L 332.40 325.96"
/>
<path stroke="#7a98b6" vector-effect="non-scaling-stroke" d="
  M 352.09 352.63
  Q 349.77 352.89 346.88 351.45
  A 0.19 0.18 21.4 0 0 346.62 351.56
  Q 345.82 354.22 345.32 356.87
  Q 345.27 357.13 345.52 357.19
  C 351.37 358.63 361.26 359.47 365.43 354.53
  Q 369.11 350.18 366.00 343.85
  C 364.50 340.80 358.67 338.47 355.53 337.33
  Q 352.68 336.28 351.89 333.56
  Q 351.73 333.03 352.02 332.56
  Q 353.01 330.99 354.96 330.76
  Q 359.49 330.25 363.46 331.51
  Q 365.27 332.09 365.44 330.19
  L 365.67 327.43
  Q 365.80 325.93 364.31 325.73
  C 357.60 324.86 347.09 324.65 346.04 332.88
  C 345.01 340.93 352.62 343.09 358.43 345.82
  C 360.66 346.87 362.55 349.92 360.05 351.85
  Q 358.67 352.92 356.85 352.62"
/>
<path stroke="#7a98b6" vector-effect="non-scaling-stroke" d="
  M 300.14 325.98
  Q 308.84 327.45 308.94 333.46
  C 308.99 337.10 306.65 340.19 303.35 341.51
  A 0.66 0.66 0.0 0 0 303.20 342.66
  C 304.78 343.81 306.33 345.10 307.14 346.88
  Q 309.23 351.48 311.40 356.18
  A 0.59 0.59 0.0 0 0 312.49 356.14
  L 323.68 326.12"
/>
<path stroke="#7a98b6" vector-effect="non-scaling-stroke" d="
  M 404.91 338.84
  Q 405.49 341.03 404.42 343.37
  A 0.82 0.82 0.0 0 1 403.15 343.65
  L 397.93 339.22
  A 0.57 0.57 0.0 0 1 398.02 338.29
  C 402.99 335.45 403.97 328.52 397.89 326.15
  Q 393.01 324.24 388.08 326.62
  C 384.89 328.16 383.54 331.46 384.99 334.76
  C 385.69 336.36 387.03 337.59 388.23 338.81
  Q 388.73 339.31 388.10 339.63
  Q 381.72 342.91 381.86 350.46
  C 381.92 353.73 384.38 356.74 387.44 357.63
  Q 395.90 360.11 402.22 352.88
  A 1.30 1.29 -40.2 0 1 404.30 353.05
  L 406.37 356.40
  A 2.40 2.39 74.7 0 0 408.38 357.55
  L 412.27 357.59
  Q 414.00 357.61 413.15 356.10
  Q 410.70 351.77 407.56 348.35
  A 1.73 1.72 -50.6 0 1 407.36 346.27
  L 411.44 339.70"
/>
<path stroke="#7a98b6" vector-effect="non-scaling-stroke" d="
  M 442.88 325.99
  Q 444.10 326.63 446.38 327.37
  C 449.10 328.26 450.88 330.52 451.21 333.40
  Q 452.05 340.51 445.52 344.02
  Q 443.94 344.87 439.93 345.80"
/>
<path stroke="#7a98b6" vector-effect="non-scaling-stroke" d="
  M 435.46 345.56
  Q 434.29 351.19 434.95 356.47
  A 0.95 0.95 0.0 0 1 433.98 357.54
  L 428.99 357.43
  A 0.61 0.60 1.9 0 1 428.40 356.81
  Q 428.91 342.04 428.41 326.57
  Q 428.40 326.23 428.06 326.18
  L 427.72 326.13"
/>
<path stroke="#7a98b6" vector-effect="non-scaling-stroke" d="
  M 589.13 352.60
  Q 586.12 352.96 583.49 350.76
  Q 580.38 348.15 579.71 344.71
  C 577.88 335.32 583.59 328.45 593.45 331.14
  A 1.10 1.09 -77.5 0 0 594.82 330.26
  L 595.33 327.07
  A 1.19 1.18 9.4 0 0 594.36 325.72
  C 586.59 324.37 578.75 326.45 574.83 333.75
  Q 569.91 342.90 575.41 351.60
  Q 577.46 354.84 581.09 356.66
  C 583.10 357.67 585.47 357.78 587.76 358.15
  Q 593.93 359.13 597.02 356.22"
/>
<path stroke="#7a98b6" vector-effect="non-scaling-stroke" d="
  M 592.48 352.61
  Q 594.55 352.98 596.85 352.06"
/>
<path stroke="#7a98b6" vector-effect="non-scaling-stroke" d="
  M 667.84 352.61
  Q 665.45 352.90 663.47 351.81
  A 1.17 1.17 0.0 0 0 661.76 352.61
  L 661.09 356.02
  A 1.16 1.15 10.3 0 0 662.04 357.39
  Q 665.01 357.86 667.75 358.17
  C 673.74 358.84 683.18 357.09 683.20 349.05
  C 683.22 342.52 677.26 339.49 671.78 337.65
  Q 669.01 336.73 667.77 334.44
  A 1.99 1.98 53.6 0 1 668.12 332.09
  C 669.31 330.91 670.96 330.48 672.63 330.65
  C 674.93 330.88 676.71 330.43 679.03 331.44
  Q 680.54 332.09 680.82 330.47
  L 681.33 327.63
  Q 681.63 325.93 679.91 325.72
  C 675.06 325.11 667.38 324.74 663.84 328.51
  Q 659.52 333.11 662.99 339.08
  C 663.92 340.67 667.46 342.87 669.19 343.52
  Q 672.35 344.71 674.94 346.24
  C 679.72 349.06 676.19 353.65 671.72 352.72"
/>
<path stroke="#7a98b6" vector-effect="non-scaling-stroke" d="
  M 624.16 325.85
  L 623.65 331.02
  A 0.95 0.95 0.0 0 1 622.45 331.84
  Q 619.38 330.99 615.58 331.37
  A 1.19 1.17 -3.2 0 0 614.51 332.55
  L 614.71 356.17
  Q 614.72 357.54 613.34 357.54
  L 609.34 357.51
  Q 608.18 357.50 608.19 356.34
  L 608.45 332.05
  A 0.85 0.85 0.0 0 0 607.54 331.19
  L 599.97 331.76
  A 0.85 0.85 0.0 0 1 599.06 330.96
  L 598.76 325.83"
/>
<path stroke="#7a98b6" vector-effect="non-scaling-stroke" d="
  M 271.33 326.14
  Q 276.71 327.08 278.93 331.02"
/>
<path stroke="#7a98b6" vector-effect="non-scaling-stroke" d="
  M 279.12 334.47
  Q 277.12 337.98 274.09 339.84
  Q 273.44 340.23 274.17 340.46
  Q 280.59 342.44 280.50 348.46
  C 280.40 355.27 272.04 357.56 266.44 357.49
  Q 261.75 357.44 257.08 357.45
  A 0.78 0.78 0.0 0 1 256.30 356.63
  Q 257.02 341.43 256.19 326.03"
/>
<path stroke="#7a98b6" vector-effect="non-scaling-stroke" d="
  M 470.46 325.98
  Q 479.98 327.94 478.24 335.77
  Q 477.83 337.66 476.04 339.64
  C 475.15 340.63 473.94 340.98 472.85 341.68
  A 0.47 0.46 -44.6 0 0 472.84 342.46
  Q 475.94 344.56 477.57 348.34
  Q 479.17 352.05 480.82 355.40
  Q 481.83 357.46 479.54 357.58
  L 476.77 357.73
  Q 474.49 357.85 473.76 355.69
  Q 472.28 351.32 470.68 347.99
  C 469.28 345.08 465.89 344.94 463.09 345.16
  A 0.78 0.78 0.0 0 0 462.36 345.96
  L 462.62 356.76
  Q 462.63 357.41 461.99 357.42
  L 456.89 357.56
  A 0.92 0.92 0.0 0 1 455.94 356.60
  Q 456.55 341.39 455.44 325.94"
/>
<path stroke="#7a98b6" vector-effect="non-scaling-stroke" d="
  M 544.03 327.28
  Q 543.73 327.17 543.61 327.38
  Q 540.18 333.17 536.52 338.92
  C 535.17 341.04 533.35 344.94 533.37 347.43
  Q 533.43 352.29 533.67 356.89
  Q 533.70 357.39 533.20 357.45
  Q 529.64 357.89 526.69 356.96"
/>
<path stroke="#7a98b6" vector-effect="non-scaling-stroke" d="
  M 527.14 348.84
  Q 527.60 348.55 527.41 347.49
  Q 526.49 342.46 523.67 337.37
  Q 520.63 331.88 516.44 325.91"
/>
<path stroke="#7a98b6" vector-effect="non-scaling-stroke" d="
  M 524.85 325.93
  L 531.01 340.79
  Q 531.33 341.58 531.63 340.79
  L 537.33 326.02"
/>
<path stroke="#7a98b6" vector-effect="non-scaling-stroke" d="
  M 567.70 325.95
  L 567.57 330.22
  Q 567.52 331.87 565.88 331.69
  Q 560.19 331.08 555.04 331.37
  A 0.79 0.78 -2.3 0 0 554.30 332.16
  L 554.39 338.01
  A 0.96 0.96 0.0 0 0 554.96 338.87
  Q 555.87 339.28 556.10 338.88"
/>
<path stroke="#7a98b6" vector-effect="non-scaling-stroke" d="
  M 563.22 338.50
  Q 566.65 339.45 564.96 344.05
  Q 564.78 344.56 564.24 344.54
  L 555.49 344.37
  A 0.94 0.94 0.0 0 0 554.54 345.30
  Q 554.54 348.01 554.54 350.67
  Q 554.54 351.31 554.98 351.77
  Q 555.61 352.43 556.35 352.01"
/>
<path stroke="#7a98b6" vector-effect="non-scaling-stroke" d="
  M 563.41 351.80
  L 569.00 352.03"
/>
<path stroke="#7a98b6" vector-effect="non-scaling-stroke" d="
  M 569.07 355.45
  Q 568.78 357.44 567.26 357.46
  Q 558.13 357.58 549.12 357.50
  A 1.08 1.08 0.0 0 1 548.05 356.36
  Q 548.85 341.26 548.02 325.94"
/>
<path stroke="#e08786" vector-effect="non-scaling-stroke" d="
  M 306.35 302.07
  A 0.41 0.41 0.0 0 0 306.74 302.36
  L 372.07 302.33
  A 0.41 0.41 0.0 0 0 372.46 301.78
  L 281.80 52.92
  A 0.41 0.41 0.0 0 0 281.41 52.65
  L 228.27 52.68
  A 0.41 0.41 0.0 0 0 227.88 53.21
  L 306.35 302.07"
/>
<path stroke="#e7aea6" vector-effect="non-scaling-stroke" d="
  M 224.78 94.88
  L 124.70 356.25
  A 1.11 1.10 -79.6 0 0 125.73 357.75
  L 194.26 357.74
  Q 194.80 357.74 195.28 358.00
  Q 195.66 358.19 196.05 358.09
  Q 196.63 357.93 197.03 357.38
  Q 197.76 356.37 197.96 355.70
  Q 205.80 329.13 213.90 303.07
  A 1.21 1.21 0.0 0 1 215.04 302.22
  L 289.75 301.11
  A 1.01 1.01 0.0 0 0 290.70 299.79
  L 275.83 252.60
  A 0.91 0.91 0.0 0 0 274.95 251.96
  Q 256.04 252.32 231.62 252.13
  Q 230.00 252.11 230.02 250.50
  Q 230.02 249.87 230.38 248.72
  Q 240.20 216.99 251.48 178.98
  A 5.74 5.70 44.8 0 0 251.46 175.64
  L 226.05 94.92
  Q 225.47 93.09 224.78 94.88"
/>
<path stroke="#7a98b6" vector-effect="non-scaling-stroke" d="
  M 613.08 127.38
  C 600.65 136.60 591.61 149.57 586.03 164.43
  C 579.92 180.70 578.90 198.21 579.48 215.74
  C 579.72 222.83 580.56 230.32 582.00 237.28
  Q 586.91 260.99 601.77 277.77
  Q 619.20 297.45 646.03 302.34
  Q 652.55 303.54 658.92 303.39
  Q 665.48 303.24 671.95 303.37
  A 2.62 2.61 64.8 0 1 673.52 303.94
  L 712.01 335.09
  A 1.07 1.06 43.6 0 0 713.38 335.06
  L 741.59 310.34
  Q 742.55 309.50 741.55 308.71
  L 714.04 286.94
  A 0.67 0.67 0.0 0 1 714.02 285.90
  Q 731.92 270.74 739.41 246.75
  Q 742.16 237.97 743.13 230.16
  Q 745.74 209.14 743.35 187.54
  Q 742.33 178.39 739.64 169.63
  C 731.07 141.72 710.13 120.13 681.48 113.93
  Q 668.44 111.11 652.61 112.45
  Q 630.71 114.29 613.08 127.38"
/>
<path stroke="#7a98b6" vector-effect="non-scaling-stroke" d="
  M 986.44 116.76
  C 961.19 125.85 943.17 148.09 936.80 174.08
  Q 934.59 183.09 933.75 192.31
  Q 933.40 196.10 933.54 200.26
  C 933.86 209.78 932.88 219.47 934.28 228.86
  Q 935.35 236.02 936.84 241.93
  C 941.17 259.02 950.83 275.56 964.77 286.63
  Q 978.01 297.15 994.19 301.06
  Q 1018.26 306.88 1041.08 300.11
  Q 1066.69 292.53 1082.04 270.02
  Q 1090.49 257.63 1094.48 242.25
  Q 1097.31 231.35 1097.90 222.12
  Q 1098.65 210.31 1098.12 197.08
  Q 1097.17 173.60 1086.96 153.99
  Q 1073.41 127.91 1046.41 117.30
  Q 1034.43 112.59 1020.14 112.06
  Q 1001.40 111.37 986.44 116.76"
/>
<path stroke="#7a98b6" vector-effect="non-scaling-stroke" d="
  M 695.48 202.41
  Q 695.18 190.49 693.65 182.47
  Q 692.36 175.72 689.02 168.68
  C 684.74 159.65 676.11 152.04 666.25 151.54
  Q 658.70 151.15 656.48 151.53
  Q 641.42 154.17 634.93 167.81
  Q 631.94 174.08 631.14 177.88
  Q 625.40 204.95 630.33 233.32
  C 632.24 244.27 638.26 256.82 648.96 261.63
  Q 662.13 267.56 674.58 261.83
  C 682.44 258.22 687.49 251.33 690.60 243.27
  Q 693.41 235.99 694.49 227.75
  Q 695.31 221.53 695.55 215.12
  Q 695.70 211.16 695.48 202.41"
/>
<path stroke="#7a98b6" vector-effect="non-scaling-stroke" d="
  M 1046.71 180.29
  Q 1044.99 170.36 1039.02 162.49
  Q 1031.46 152.52 1019.02 151.50
  Q 999.16 149.86 989.99 165.86
  Q 987.32 170.51 985.94 175.35
  Q 982.65 186.88 982.32 200.34
  C 981.95 215.16 982.23 225.26 985.24 237.41
  C 987.58 246.87 992.57 256.35 1001.57 261.04
  Q 1011.56 266.24 1022.29 263.94
  C 1033.51 261.54 1040.93 253.63 1044.70 243.05
  Q 1047.65 234.79 1048.45 227.08
  Q 1050.34 208.90 1048.71 191.07
  C 1048.42 187.87 1047.67 184.28 1047.20 180.88
  Q 1047.16 180.60 1046.93 180.43
  Q 1046.81 180.34 1046.71 180.29"
/>
<path stroke="#7a98b6" vector-effect="non-scaling-stroke" d="
  M 460.92 154.63
  L 461.08 197.79
  A 1.25 1.25 0.0 0 0 462.33 199.03
  L 489.78 198.94
  A 21.02 20.36 -0.2 0 0 510.73 178.50
  L 510.71 173.56
  A 21.02 20.36 -0.2 0 0 489.62 153.28
  L 462.17 153.37
  A 1.25 1.25 0.0 0 0 460.92 154.63"
/>
<path stroke="#7a98b6" vector-effect="non-scaling-stroke" d="
  M 231.9197 357.9732
  A 16.58 15.52 102.4 0 0 250.6380 345.1127
  A 16.58 15.52 102.4 0 0 239.0403 325.5868
  A 16.58 15.52 102.4 0 0 220.3220 338.4473
  A 16.58 15.52 102.4 0 0 231.9197 357.9732"
/>
<path stroke="#7a98b6" vector-effect="non-scaling-stroke" d="
  M 434.62 332.57
  L 434.87 340.40
  A 1.25 1.25 0.0 0 0 436.15 341.61
  L 438.91 341.52
  A 6.39 4.44 -1.8 0 0 445.16 336.89
  L 445.11 335.43
  A 6.39 4.44 -1.8 0 0 438.59 331.19
  L 435.83 331.28
  A 1.25 1.25 0.0 0 0 434.62 332.57"
/>
<path stroke="#7a98b6" vector-effect="non-scaling-stroke" d="
  M 496.1215 357.9051
  A 16.55 15.47 102.7 0 0 514.8515 345.1610
  A 16.55 15.47 102.7 0 0 503.3985 325.6149
  A 16.55 15.47 102.7 0 0 484.6685 338.3590
  A 16.55 15.47 102.7 0 0 496.1215 357.9051"
/>
<path stroke="#7a98b6" vector-effect="non-scaling-stroke" d="
  M 637.9981 357.8956
  A 16.57 15.47 103.3 0 0 656.8651 345.3289
  A 16.57 15.47 103.3 0 0 645.6219 325.6444
  A 16.57 15.47 103.3 0 0 626.7549 338.2111
  A 16.57 15.47 103.3 0 0 637.9981 357.8956"
/>
<path stroke="#7a98b6" vector-effect="non-scaling-stroke" d="
  M 236.50 352.62
  Q 236.33 353.24 237.44 352.79
  Q 244.60 349.89 244.20 341.98
  Q 244.01 338.27 243.66 337.24
  C 241.61 331.10 234.59 327.89 229.54 333.22
  Q 227.61 335.26 227.06 338.11
  Q 226.41 341.43 226.69 343.99
  Q 227.50 351.27 234.24 352.73"
/>
<path stroke="#7a98b6" vector-effect="non-scaling-stroke" d="
  M 397.09 332.58
  A 3.92 3.45 66.7 0 0 394.24 329.07
  A 3.91 3.44 66.4 0 0 390.18 331.55
  A 3.91 3.44 67.2 0 0 392.82 336.42
  A 3.91 3.44 66.9 0 0 396.78 334.73
  A 4.08 3.57 67.4 0 0 397.11 333.51"
/>
<path stroke="#7a98b6" vector-effect="non-scaling-stroke" d="
  M 395.05 352.67
  Q 398.39 351.98 400.49 349.56
  A 1.36 1.36 0.0 0 0 400.48 347.77
  Q 397.67 344.60 393.95 342.10
  C 388.05 338.13 384.84 353.14 392.44 352.66"
/>
<path stroke="#7a98b6" vector-effect="non-scaling-stroke" d="
  M 642.1177 353.1571
  A 11.36 8.91 88.7 0 0 650.7677 341.5979
  A 11.36 8.91 88.7 0 0 641.6023 330.4429
  A 11.36 8.91 88.7 0 0 632.9523 342.0021
  A 11.36 8.91 88.7 0 0 642.1177 353.1571"
/>
<path stroke="#7a98b6" vector-effect="non-scaling-stroke" d="
  M 499.9673 353.1471
  A 11.34 9.00 88.7 0 0 508.7077 341.6058
  A 11.34 9.00 88.7 0 0 499.4527 330.4729
  A 11.34 9.00 88.7 0 0 490.7123 342.0142
  A 11.34 9.00 88.7 0 0 499.9673 353.1471"
/>
<path stroke="#7a98b6" vector-effect="non-scaling-stroke" d="
  M 265.49 338.98
  Q 269.85 339.46 271.52 337.54
  C 274.09 334.56 271.15 331.40 267.99 331.26
  Q 265.74 331.15 263.52 331.42
  A 1.16 1.15 -2.1 0 0 262.51 332.50
  Q 262.39 334.74 262.43 337.25
  Q 262.45 339.37 264.58 338.98"
/>
<path stroke="#7a98b6" vector-effect="non-scaling-stroke" d="
  M 268.53 351.84
  Q 271.19 352.19 272.68 350.90
  Q 275.15 348.77 273.73 346.37
  C 272.28 343.89 268.95 343.62 266.32 343.88"
/>
<path stroke="#7a98b6" vector-effect="non-scaling-stroke" d="
  M 264.70 343.89
  Q 263.64 343.68 262.96 344.23
  Q 262.61 344.51 262.61 344.97
  L 262.61 350.76
  Q 262.61 351.25 262.96 351.59
  Q 263.90 352.50 264.51 351.88"
/>
<path stroke="#7a98b6" vector-effect="non-scaling-stroke" d="
  M 329.72 342.52
  Q 329.89 342.88 330.39 342.96
  A 0.69 0.69 0.0 0 0 331.16 342.08
  L 327.84 331.23
  Q 327.39 329.76 326.92 331.22
  Q 325.47 335.79 323.88 340.81
  Q 323.08 343.31 323.88 342.75"
/>
<path stroke="#7a98b6" vector-effect="non-scaling-stroke" d="
  M 292.56 332.68
  L 292.70 339.52
  A 1.35 1.35 0.0 0 0 294.08 340.84
  L 297.34 340.77
  A 5.49 4.62 -1.2 0 0 302.73 336.03
  L 302.73 335.73
  A 5.49 4.62 -1.2 0 0 297.14 331.23
  L 293.88 331.30
  A 1.35 1.35 0.0 0 0 292.56 332.68"
/>
<path stroke="#7a98b6" vector-effect="non-scaling-stroke" d="
  M 462.09 332.60
  L 462.13 339.42
  A 1.39 1.39 0.0 0 0 463.53 340.80
  L 466.96 340.77
  A 5.52 4.59 -0.4 0 0 472.45 336.14
  L 472.45 335.72
  A 5.52 4.59 -0.4 0 0 466.90 331.17
  L 463.47 331.20
  A 1.39 1.39 0.0 0 0 462.09 332.60"
/>
</g>
<path fill="#dfdbe7" fill-opacity="0.996" d="
  M 305.58 302.45
  L 226.86 53.00
  A 0.76 0.76 0.0 0 1 227.59 52.01
  L 282.02 52.01
  A 0.76 0.76 0.0 0 1 282.73 52.51
  L 373.52 301.97
  A 0.76 0.76 0.0 0 1 372.80 302.99
  L 306.31 302.98
  A 0.76 0.76 0.0 0 1 305.58 302.45
  Z
  M 306.35 302.07
  A 0.41 0.41 0.0 0 0 306.74 302.36
  L 372.07 302.33
  A 0.41 0.41 0.0 0 0 372.46 301.78
  L 281.80 52.92
  A 0.41 0.41 0.0 0 0 281.41 52.65
  L 228.27 52.68
  A 0.41 0.41 0.0 0 0 227.88 53.21
  L 306.35 302.07
  Z"
/>
<path fill="#e13426" d="
  M 306.35 302.07
  L 227.88 53.21
  A 0.41 0.41 0.0 0 1 228.27 52.68
  L 281.41 52.65
  A 0.41 0.41 0.0 0 1 281.80 52.92
  L 372.46 301.78
  A 0.41 0.41 0.0 0 1 372.07 302.33
  L 306.74 302.36
  A 0.41 0.41 0.0 0 1 306.35 302.07
  Z"
/>
<path fill="#dfdbe7" fill-opacity="0.996" d="
  M 215.21 303.46
  Q 213.35 307.10 212.19 311.29
  C 210.34 317.90 207.82 325.25 206.18 330.82
  Q 202.49 343.38 198.89 355.38
  C 198.37 357.11 197.82 359.36 195.42 358.97
  Q 194.34 358.79 194.07 358.80
  Q 162.88 359.04 130.00 358.86
  Q 127.21 358.85 123.51 357.96
  Q 122.96 357.83 123.14 357.29
  Q 123.19 357.13 123.34 357.03
  Q 123.56 356.88 123.65 356.63
  Q 125.01 352.68 126.40 349.13
  Q 137.09 321.78 147.46 294.30
  Q 149.91 287.84 152.29 281.59
  Q 173.00 227.34 193.85 173.14
  C 196.51 166.21 198.85 159.54 201.57 152.68
  Q 211.06 128.73 220.06 104.51
  Q 222.24 98.65 224.98 92.24
  A 0.42 0.42 0.0 0 1 225.74 92.21
  Q 226.55 93.74 227.11 95.52
  Q 239.07 133.59 250.06 168.18
  Q 251.21 171.79 252.32 175.44
  Q 252.85 177.18 252.41 178.71
  Q 241.91 214.82 232.49 244.91
  Q 231.77 247.23 231.54 249.40
  A 1.45 1.44 3.2 0 0 232.98 251.00
  L 274.98 250.99
  A 1.85 1.84 -1.1 0 1 276.83 252.76
  Q 276.89 254.02 277.33 255.22
  Q 279.46 261.00 281.26 266.83
  Q 285.85 281.73 290.46 295.78
  C 290.95 297.26 290.90 298.82 291.53 300.12
  A 1.38 1.38 0.0 0 1 290.27 302.10
  Q 264.95 301.70 245.13 302.46
  Q 231.52 302.99 215.85 303.06
  A 0.72 0.71 -76.5 0 0 215.21 303.46
  Z
  M 224.78 94.88
  L 124.70 356.25
  A 1.11 1.10 -79.6 0 0 125.73 357.75
  L 194.26 357.74
  Q 194.80 357.74 195.28 358.00
  Q 195.66 358.19 196.05 358.09
  Q 196.63 357.93 197.03 357.38
  Q 197.76 356.37 197.96 355.70
  Q 205.80 329.13 213.90 303.07
  A 1.21 1.21 0.0 0 1 215.04 302.22
  L 289.75 301.11
  A 1.01 1.01 0.0 0 0 290.70 299.79
  L 275.83 252.60
  A 0.91 0.91 0.0 0 0 274.95 251.96
  Q 256.04 252.32 231.62 252.13
  Q 230.00 252.11 230.02 250.50
  Q 230.02 249.87 230.38 248.72
  Q 240.20 216.99 251.48 178.98
  A 5.74 5.70 44.8 0 0 251.46 175.64
  L 226.05 94.92
  Q 225.47 93.09 224.78 94.88
  Z"
/>
<path fill="#ef8166" d="
  M 124.70 356.25
  L 224.78 94.88
  Q 225.47 93.09 226.05 94.92
  L 251.46 175.64
  A 5.74 5.70 44.8 0 1 251.48 178.98
  Q 240.20 216.99 230.38 248.72
  Q 230.02 249.87 230.02 250.50
  Q 230.00 252.11 231.62 252.13
  Q 256.04 252.32 274.95 251.96
  A 0.91 0.91 0.0 0 1 275.83 252.60
  L 290.70 299.79
  A 1.01 1.01 0.0 0 1 289.75 301.11
  L 215.04 302.22
  A 1.21 1.21 0.0 0 0 213.90 303.07
  Q 205.80 329.13 197.96 355.70
  Q 197.76 356.37 197.03 357.38
  Q 196.63 357.93 196.05 358.09
  Q 195.66 358.19 195.28 358.00
  Q 194.80 357.74 194.26 357.74
  L 125.73 357.75
  A 1.11 1.10 -79.6 0 1 124.70 356.25
  Z"
/>
<path fill="#dfdbe7" fill-opacity="0.996" d="
  M 715.83 285.34
  Q 714.59 286.35 715.85 287.35
  L 742.69 308.52
  A 1.27 1.26 -46.2 0 1 742.73 310.47
  L 713.91 335.64
  A 1.95 1.94 -45.9 0 1 711.40 335.68
  L 673.00 304.53
  A 1.59 1.57 -23.8 0 0 672.11 304.19
  Q 666.20 303.91 654.22 303.74
  Q 642.89 303.57 631.78 299.23
  Q 627.83 297.69 624.17 296.03
  C 612.01 290.51 601.25 280.30 594.22 269.28
  Q 587.38 258.55 583.95 247.55
  Q 582.12 241.68 580.75 235.17
  Q 580.04 231.75 579.87 228.37
  C 579.71 225.19 579.20 222.09 579.10 218.83
  Q 578.44 196.96 580.21 183.89
  Q 582.85 164.44 594.11 146.55
  Q 599.43 138.10 607.51 130.84
  Q 623.96 116.05 646.32 112.46
  Q 649.42 111.96 653.07 111.47
  Q 656.35 111.02 659.89 110.96
  Q 684.52 110.51 705.17 122.62
  Q 719.68 131.12 729.30 145.84
  Q 739.91 162.06 743.39 181.22
  Q 744.91 189.60 745.12 200.98
  Q 745.43 217.34 744.67 225.22
  Q 743.27 239.70 737.44 254.66
  Q 735.61 259.36 733.26 263.45
  C 728.54 271.65 723.01 279.45 715.83 285.34
  Z
  M 613.08 127.38
  C 600.65 136.60 591.61 149.57 586.03 164.43
  C 579.92 180.70 578.90 198.21 579.48 215.74
  C 579.72 222.83 580.56 230.32 582.00 237.28
  Q 586.91 260.99 601.77 277.77
  Q 619.20 297.45 646.03 302.34
  Q 652.55 303.54 658.92 303.39
  Q 665.48 303.24 671.95 303.37
  A 2.62 2.61 64.8 0 1 673.52 303.94
  L 712.01 335.09
  A 1.07 1.06 43.6 0 0 713.38 335.06
  L 741.59 310.34
  Q 742.55 309.50 741.55 308.71
  L 714.04 286.94
  A 0.67 0.67 0.0 0 1 714.02 285.90
  Q 731.92 270.74 739.41 246.75
  Q 742.16 237.97 743.13 230.16
  Q 745.74 209.14 743.35 187.54
  Q 742.33 178.39 739.64 169.63
  C 731.07 141.72 710.13 120.13 681.48 113.93
  Q 668.44 111.11 652.61 112.45
  Q 630.71 114.29 613.08 127.38
  Z"
/>
<path fill="#dfdbe7" fill-opacity="0.996" d="
  M 870.81 180.25
  L 917.88 180.03
  A 0.92 0.92 0.0 0 0 918.79 179.07
  Q 918.59 174.14 917.63 169.88
  C 913.23 150.32 903.60 134.46 886.88 123.65
  Q 880.45 119.50 873.26 116.95
  Q 864.85 113.96 856.70 112.89
  Q 848.09 111.75 836.27 112.00
  Q 810.19 112.53 791.11 128.23
  C 780.24 137.18 772.14 149.41 767.37 162.63
  Q 762.95 174.86 761.32 189.54
  Q 760.88 193.54 760.85 197.81
  Q 760.78 209.21 760.88 219.14
  Q 760.98 228.43 764.40 244.05
  Q 766.64 254.34 772.23 265.08
  C 781.54 282.98 797.52 295.75 817.19 300.79
  Q 828.71 303.75 839.85 303.77
  Q 854.33 303.80 867.35 300.33
  Q 880.00 296.96 889.78 290.31
  Q 916.41 272.20 918.90 238.33
  A 1.38 1.37 2.1 0 0 917.52 236.86
  L 872.35 236.86
  A 1.71 1.70 90.0 0 0 870.65 238.57
  Q 870.65 244.33 868.48 249.73
  C 863.05 263.29 845.91 265.84 833.04 263.57
  Q 822.60 261.73 817.55 254.51
  Q 814.17 249.68 812.77 244.05
  Q 810.25 233.95 809.88 223.29
  Q 809.39 209.02 809.81 194.82
  Q 810.03 187.23 810.87 182.25
  Q 812.00 175.48 813.77 169.83
  C 816.76 160.27 823.55 153.52 833.50 151.81
  Q 840.02 150.68 850.31 152.12
  C 859.70 153.44 866.37 158.35 869.22 167.76
  Q 870.96 173.53 870.52 178.39
  Q 869.55 169.39 867.37 164.83
  Q 863.64 157.04 856.48 154.49
  Q 854.25 153.69 846.74 152.50
  C 837.54 151.04 826.10 152.43 819.97 160.00
  C 815.16 165.93 813.51 172.37 811.91 179.60
  Q 810.99 183.76 810.94 188.66
  Q 810.86 196.50 810.59 204.07
  C 810.35 210.79 810.97 218.00 810.91 224.78
  C 810.83 232.65 812.23 240.70 814.83 247.80
  Q 817.16 254.17 822.87 258.62
  C 825.31 260.53 828.13 261.22 830.89 262.40
  C 833.21 263.40 835.32 262.48 837.44 263.65
  Q 838.04 263.98 838.70 263.84
  Q 841.24 263.29 843.56 263.75
  Q 843.96 263.83 844.36 263.72
  Q 846.27 263.18 848.17 262.97
  Q 852.43 262.52 856.83 260.55
  C 865.30 256.77 868.11 250.47 869.78 242.08
  C 870.08 240.60 869.87 239.15 870.18 237.72
  A 2.18 2.18 0.0 0 1 872.31 236.00
  L 917.50 236.01
  Q 919.91 236.01 919.70 238.41
  Q 919.13 244.80 917.67 251.23
  Q 916.12 258.02 913.63 263.54
  Q 905.61 281.22 889.05 291.82
  C 886.72 293.30 884.21 294.97 881.69 296.01
  Q 870.38 300.72 863.24 302.18
  C 853.32 304.21 842.72 304.36 832.36 303.90
  Q 808.56 302.83 789.39 287.84
  C 786.47 285.55 783.92 282.50 781.23 279.78
  Q 779.82 278.35 778.46 276.44
  Q 766.59 259.76 762.62 239.95
  C 759.76 225.64 759.61 210.56 760.12 196.41
  Q 760.33 190.69 762.17 179.05
  Q 764.29 165.71 770.42 153.19
  C 780.18 133.30 797.47 118.26 819.03 113.39
  Q 827.62 111.46 831.87 111.21
  Q 841.30 110.65 849.46 111.17
  Q 855.67 111.56 864.02 113.49
  Q 871.98 115.33 877.77 117.94
  Q 905.11 130.26 915.10 158.33
  Q 916.69 162.79 917.92 168.28
  Q 919.14 173.72 919.98 178.42
  Q 920.44 180.98 917.84 180.99
  Q 895.87 181.04 872.51 180.73
  Q 870.61 180.71 870.81 180.25
  Z"
/>
<path fill="#dfdbe7" fill-opacity="0.996" d="
  M 1009.80 303.99
  Q 1001.30 303.77 994.50 302.03
  C 977.26 297.63 961.85 288.05 951.30 273.79
  Q 943.03 262.62 938.68 250.29
  Q 936.41 243.86 934.63 235.74
  Q 934.03 232.97 933.88 230.20
  C 933.74 227.55 933.02 225.06 933.00 222.41
  Q 932.83 204.18 933.22 192.69
  Q 933.89 172.96 944.06 152.90
  Q 948.66 143.82 955.40 136.46
  Q 971.20 119.22 994.51 113.52
  Q 996.03 113.14 997.52 112.99
  C 998.97 112.84 1000.18 112.14 1001.57 112.09
  C 1004.49 111.99 1007.12 111.14 1010.07 111.02
  Q 1027.70 110.29 1042.44 115.09
  Q 1046.25 116.33 1050.36 118.16
  Q 1064.55 124.46 1074.07 134.56
  Q 1086.58 147.85 1092.74 165.06
  Q 1095.75 173.50 1097.63 184.48
  Q 1099.08 192.90 1099.08 203.21
  Q 1099.08 213.37 1098.81 221.48
  Q 1098.63 226.93 1096.59 236.61
  Q 1094.84 244.95 1092.55 251.25
  Q 1086.61 267.59 1074.39 281.01
  Q 1067.03 289.09 1055.77 294.86
  C 1048.89 298.39 1041.49 301.58 1033.92 302.76
  C 1025.69 304.04 1017.97 304.20 1009.80 303.99
  Z
  M 986.44 116.76
  C 961.19 125.85 943.17 148.09 936.80 174.08
  Q 934.59 183.09 933.75 192.31
  Q 933.40 196.10 933.54 200.26
  C 933.86 209.78 932.88 219.47 934.28 228.86
  Q 935.35 236.02 936.84 241.93
  C 941.17 259.02 950.83 275.56 964.77 286.63
  Q 978.01 297.15 994.19 301.06
  Q 1018.26 306.88 1041.08 300.11
  Q 1066.69 292.53 1082.04 270.02
  Q 1090.49 257.63 1094.48 242.25
  Q 1097.31 231.35 1097.90 222.12
  Q 1098.65 210.31 1098.12 197.08
  Q 1097.17 173.60 1086.96 153.99
  Q 1073.41 127.91 1046.41 117.30
  Q 1034.43 112.59 1020.14 112.06
  Q 1001.40 111.37 986.44 116.76
  Z"
/>
<path fill="#165686" d="
  M 586.03 164.43
  C 591.61 149.57 600.65 136.60 613.08 127.38
  Q 630.71 114.29 652.61 112.45
  Q 668.44 111.11 681.48 113.93
  C 710.13 120.13 731.07 141.72 739.64 169.63
  Q 742.33 178.39 743.35 187.54
  Q 745.74 209.14 743.13 230.16
  Q 742.16 237.97 739.41 246.75
  Q 731.92 270.74 714.02 285.90
  A 0.67 0.67 0.0 0 0 714.04 286.94
  L 741.55 308.71
  Q 742.55 309.50 741.59 310.34
  L 713.38 335.06
  A 1.07 1.06 43.6 0 1 712.01 335.09
  L 673.52 303.94
  A 2.62 2.61 64.8 0 0 671.95 303.37
  Q 665.48 303.24 658.92 303.39
  Q 652.55 303.54 646.03 302.34
  Q 619.20 297.45 601.77 277.77
  Q 586.91 260.99 582.00 237.28
  C 580.56 230.32 579.72 222.83 579.48 215.74
  C 578.90 198.21 579.92 180.70 586.03 164.43
  Z
  M 695.48 202.41
  Q 695.18 190.49 693.65 182.47
  Q 692.36 175.72 689.02 168.68
  C 684.74 159.65 676.11 152.04 666.25 151.54
  Q 658.70 151.15 656.48 151.53
  Q 641.42 154.17 634.93 167.81
  Q 631.94 174.08 631.14 177.88
  Q 625.40 204.95 630.33 233.32
  C 632.24 244.27 638.26 256.82 648.96 261.63
  Q 662.13 267.56 674.58 261.83
  C 682.44 258.22 687.49 251.33 690.60 243.27
  Q 693.41 235.99 694.49 227.75
  Q 695.31 221.53 695.55 215.12
  Q 695.70 211.16 695.48 202.41
  Z"
/>
<path fill="#165686" d="
  M 870.81 180.25
  Q 870.89 178.96 870.52 178.39
  Q 870.96 173.53 869.22 167.76
  C 866.37 158.35 859.70 153.44 850.31 152.12
  Q 840.02 150.68 833.50 151.81
  C 823.55 153.52 816.76 160.27 813.77 169.83
  Q 812.00 175.48 810.87 182.25
  Q 810.03 187.23 809.81 194.82
  Q 809.39 209.02 809.88 223.29
  Q 810.25 233.95 812.77 244.05
  Q 814.17 249.68 817.55 254.51
  Q 822.60 261.73 833.04 263.57
  C 845.91 265.84 863.05 263.29 868.48 249.73
  Q 870.65 244.33 870.65 238.57
  A 1.71 1.70 90.0 0 1 872.35 236.86
  L 917.52 236.86
  A 1.38 1.37 2.1 0 1 918.90 238.33
  Q 916.41 272.20 889.78 290.31
  Q 880.00 296.96 867.35 300.33
  Q 854.33 303.80 839.85 303.77
  Q 828.71 303.75 817.19 300.79
  C 797.52 295.75 781.54 282.98 772.23 265.08
  Q 766.64 254.34 764.40 244.05
  Q 760.98 228.43 760.88 219.14
  Q 760.78 209.21 760.85 197.81
  Q 760.88 193.54 761.32 189.54
  Q 762.95 174.86 767.37 162.63
  C 772.14 149.41 780.24 137.18 791.11 128.23
  Q 810.19 112.53 836.27 112.00
  Q 848.09 111.75 856.70 112.89
  Q 864.85 113.96 873.26 116.95
  Q 880.45 119.50 886.88 123.65
  C 903.60 134.46 913.23 150.32 917.63 169.88
  Q 918.59 174.14 918.79 179.07
  A 0.92 0.92 0.0 0 1 917.88 180.03
  L 870.81 180.25
  Z"
/>
<path fill="#165686" d="
  M 936.80 174.08
  C 943.17 148.09 961.19 125.85 986.44 116.76
  Q 1001.40 111.37 1020.14 112.06
  Q 1034.43 112.59 1046.41 117.30
  Q 1073.41 127.91 1086.96 153.99
  Q 1097.17 173.60 1098.12 197.08
  Q 1098.65 210.31 1097.90 222.12
  Q 1097.31 231.35 1094.48 242.25
  Q 1090.49 257.63 1082.04 270.02
  Q 1066.69 292.53 1041.08 300.11
  Q 1018.26 306.88 994.19 301.06
  Q 978.01 297.15 964.77 286.63
  C 950.83 275.56 941.17 259.02 936.84 241.93
  Q 935.35 236.02 934.28 228.86
  C 932.88 219.47 933.86 209.78 933.54 200.26
  Q 933.40 196.10 933.75 192.31
  Q 934.59 183.09 936.80 174.08
  Z
  M 1046.71 180.29
  Q 1044.99 170.36 1039.02 162.49
  Q 1031.46 152.52 1019.02 151.50
  Q 999.16 149.86 989.99 165.86
  Q 987.32 170.51 985.94 175.35
  Q 982.65 186.88 982.32 200.34
  C 981.95 215.16 982.23 225.26 985.24 237.41
  C 987.58 246.87 992.57 256.35 1001.57 261.04
  Q 1011.56 266.24 1022.29 263.94
  C 1033.51 261.54 1040.93 253.63 1044.70 243.05
  Q 1047.65 234.79 1048.45 227.08
  Q 1050.34 208.90 1048.71 191.07
  C 1048.42 187.87 1047.67 184.28 1047.20 180.88
  Q 1047.16 180.60 1046.93 180.43
  Q 1046.81 180.34 1046.71 180.29
  Z"
/>
<path fill="#dfdbe7" fill-opacity="0.996" d="
  M 462.72 237.89
  Q 462.60 237.87 462.62 237.67
  Q 462.62 237.66 462.63 237.66
  L 480.84 237.58
  A 2.16 2.15 -13.0 0 1 482.78 238.79
  L 512.88 300.11
  A 1.54 1.53 -13.0 0 0 514.26 300.97
  L 563.65 300.97
  A 1.45 1.44 -13.5 0 0 564.94 298.87
  L 527.57 225.67
  Q 527.12 224.80 527.95 224.29
  C 532.59 221.39 537.53 218.76 541.63 215.17
  Q 553.88 204.41 557.37 187.78
  Q 558.47 182.52 558.61 175.55
  Q 558.76 167.86 558.30 163.02
  Q 556.01 138.78 534.53 125.51
  Q 524.81 119.51 512.98 117.07
  Q 503.27 115.07 495.46 114.79
  Q 485.10 114.42 474.59 114.64
  C 454.21 115.05 433.58 114.67 413.48 114.83
  Q 413.02 114.83 413.02 115.28
  L 413.04 300.07
  A 0.78 0.78 0.0 0 0 413.82 300.85
  L 459.75 300.99
  A 1.24 1.24 0.0 0 0 461.00 299.75
  L 460.99 238.72
  A 0.84 0.83 71.2 0 1 461.31 238.06
  Q 462.36 237.21 462.29 237.97
  L 462.00 299.76
  A 2.25 2.25 0.0 0 1 459.75 302.00
  L 414.51 302.01
  A 2.50 2.50 0.0 0 1 412.01 299.51
  L 412.01 114.28
  A 0.27 0.26 -0.0 0 1 412.28 114.02
  Q 454.13 114.05 495.48 114.00
  C 498.92 113.99 502.12 114.87 505.53 115.01
  Q 507.57 115.09 509.74 115.56
  Q 516.30 116.97 522.25 118.98
  Q 532.86 122.56 541.62 129.36
  Q 550.00 135.86 555.27 147.73
  Q 556.51 150.54 557.91 155.62
  Q 558.98 159.48 559.05 163.34
  Q 559.25 173.58 558.98 182.12
  Q 558.85 186.28 556.83 192.70
  Q 555.22 197.83 553.37 201.45
  C 548.20 211.57 540.19 218.58 530.26 223.64
  A 2.41 2.41 0.0 0 0 529.15 226.76
  Q 531.65 232.39 534.90 238.15
  C 536.09 240.27 536.82 242.43 538.10 244.75
  C 545.37 258.02 551.55 271.59 558.81 284.96
  Q 558.92 285.15 558.95 285.37
  Q 558.99 285.64 559.12 285.88
  L 565.86 298.58
  A 2.22 2.21 -37.9 0 1 565.54 301.12
  Q 564.77 301.96 563.70 301.96
  Q 538.88 302.04 514.35 301.98
  A 2.19 2.18 76.9 0 1 512.39 300.75
  L 485.03 245.00
  A 0.60 0.49 -65.7 0 1 484.99 244.85
  Q 484.91 243.97 484.10 243.82
  Q 483.73 243.76 483.68 243.38
  Q 483.32 240.33 481.18 238.32
  Q 480.81 237.97 480.31 237.97
  L 462.72 237.89
  Z"
/>
<path fill="#165686" d="
  M 462.72 237.89
  L 462.29 237.97
  Q 462.36 237.21 461.31 238.06
  A 0.84 0.83 71.2 0 0 460.99 238.72
  L 461.00 299.75
  A 1.24 1.24 0.0 0 1 459.75 300.99
  L 413.82 300.85
  A 0.78 0.78 0.0 0 1 413.04 300.07
  L 413.02 115.28
  Q 413.02 114.83 413.48 114.83
  C 433.58 114.67 454.21 115.05 474.59 114.64
  Q 485.10 114.42 495.46 114.79
  Q 503.27 115.07 512.98 117.07
  Q 524.81 119.51 534.53 125.51
  Q 556.01 138.78 558.30 163.02
  Q 558.76 167.86 558.61 175.55
  Q 558.47 182.52 557.37 187.78
  Q 553.88 204.41 541.63 215.17
  C 537.53 218.76 532.59 221.39 527.95 224.29
  Q 527.12 224.80 527.57 225.67
  L 564.94 298.87
  A 1.45 1.44 -13.5 0 1 563.65 300.97
  L 514.26 300.97
  A 1.54 1.53 -13.0 0 1 512.88 300.11
  L 482.78 238.79
  A 2.16 2.15 -13.0 0 0 480.84 237.58
  L 462.63 237.66
  Q 462.62 237.66 462.62 237.67
  Q 462.60 237.87 462.72 237.89
  Z
  M 460.92 154.63
  L 461.08 197.79
  A 1.25 1.25 0.0 0 0 462.33 199.03
  L 489.78 198.94
  A 21.02 20.36 -0.2 0 0 510.73 178.50
  L 510.71 173.56
  A 21.02 20.36 -0.2 0 0 489.62 153.28
  L 462.17 153.37
  A 1.25 1.25 0.0 0 0 460.92 154.63
  Z"
/>
<path fill="#dfdbe7" fill-opacity="0.996" d="
  M 695.55 215.12
  Q 695.31 221.53 694.49 227.75
  Q 693.41 235.99 690.60 243.27
  C 687.49 251.33 682.44 258.22 674.58 261.83
  Q 662.13 267.56 648.96 261.63
  C 638.26 256.82 632.24 244.27 630.33 233.32
  Q 625.40 204.95 631.14 177.88
  Q 631.94 174.08 634.93 167.81
  Q 641.42 154.17 656.48 151.53
  Q 658.70 151.15 666.25 151.54
  C 676.11 152.04 684.74 159.65 689.02 168.68
  Q 692.36 175.72 693.65 182.47
  Q 695.18 190.49 695.48 202.41
  Q 695.70 211.16 695.55 215.12
  Z
  M 629.41 192.41
  Q 628.86 200.35 628.88 209.81
  C 628.91 221.23 630.13 231.31 633.47 241.59
  Q 636.44 250.74 643.33 257.00
  C 649.89 262.95 660.87 265.86 669.78 262.90
  Q 677.55 260.31 682.88 254.64
  Q 685.53 251.83 687.61 247.74
  C 691.79 239.50 693.65 230.92 694.46 221.33
  Q 696.08 202.03 693.33 185.12
  Q 692.68 181.13 691.60 177.49
  Q 690.48 173.73 688.87 170.12
  Q 685.98 163.68 679.72 158.13
  Q 674.80 153.76 667.75 152.51
  Q 655.67 150.37 645.93 156.51
  Q 640.39 160.01 637.23 165.53
  Q 633.54 171.97 632.21 177.28
  Q 629.80 186.88 629.41 192.41
  Z"
/>
<path fill="#dfdbe7" fill-opacity="0.996" d="
  M 1046.71 180.29
  Q 1045.62 178.08 1045.03 175.74
  Q 1044.90 175.21 1044.48 174.79
  A 1.37 1.36 -69.7 0 1 1044.10 173.95
  Q 1043.76 169.54 1040.41 166.81
  C 1039.82 166.34 1039.69 165.71 1039.73 164.98
  Q 1039.75 164.45 1039.41 164.03
  C 1034.08 157.39 1028.42 153.28 1019.59 152.23
  Q 1001.12 150.05 991.02 165.48
  C 990.02 167.01 989.70 168.83 988.67 170.42
  Q 987.61 172.06 986.96 174.32
  Q 984.98 181.18 983.89 188.21
  Q 983.02 193.81 983.00 202.36
  Q 982.98 208.26 982.99 214.12
  Q 982.99 221.11 983.68 225.85
  C 984.92 234.45 987.07 243.37 991.79 250.83
  Q 993.43 253.40 995.88 255.65
  Q 999.32 258.81 1000.88 259.71
  Q 1014.59 267.64 1027.91 261.21
  Q 1033.40 258.56 1036.91 254.48
  C 1042.03 248.54 1045.19 240.95 1046.56 233.50
  Q 1050.84 210.27 1047.27 186.54
  Q 1047.05 185.11 1047.04 183.43
  Q 1047.03 181.80 1046.71 180.29
  Q 1046.81 180.34 1046.93 180.43
  Q 1047.16 180.60 1047.20 180.88
  C 1047.67 184.28 1048.42 187.87 1048.71 191.07
  Q 1050.34 208.90 1048.45 227.08
  Q 1047.65 234.79 1044.70 243.05
  C 1040.93 253.63 1033.51 261.54 1022.29 263.94
  Q 1011.56 266.24 1001.57 261.04
  C 992.57 256.35 987.58 246.87 985.24 237.41
  C 982.23 225.26 981.95 215.16 982.32 200.34
  Q 982.65 186.88 985.94 175.35
  Q 987.32 170.51 989.99 165.86
  Q 999.16 149.86 1019.02 151.50
  Q 1031.46 152.52 1039.02 162.49
  Q 1044.99 170.36 1046.71 180.29
  Z"
/>
<path fill="#dfdbe7" fill-opacity="0.996" d="
  M 460.92 154.63
  A 1.25 1.25 0.0 0 1 462.17 153.37
  L 489.62 153.28
  A 21.02 20.36 -0.2 0 1 510.71 173.56
  L 510.73 178.50
  A 21.02 20.36 -0.2 0 1 489.78 198.94
  L 462.33 199.03
  A 1.25 1.25 0.0 0 1 461.08 197.79
  L 460.92 154.63
  Z
  M 461.96 154.75
  L 462.04 197.33
  A 0.74 0.74 0.0 0 0 462.78 198.07
  L 489.65 198.02
  A 20.37 19.58 -0.1 0 0 509.98 178.41
  L 509.98 173.51
  A 20.37 19.58 -0.1 0 0 489.57 153.96
  L 462.70 154.01
  A 0.74 0.74 0.0 0 0 461.96 154.75
  Z"
/>
<path fill="#dfdbe7" fill-opacity="0.996" d="
  M 251.27 342.16
  C 250.83 344.66 251.44 347.03 250.11 349.36
  Q 247.60 353.77 245.24 355.68
  C 239.04 360.71 229.92 360.27 224.10 354.66
  Q 218.78 349.54 219.08 341.29
  C 219.21 337.56 221.56 331.74 224.51 329.08
  Q 228.78 325.23 234.19 324.82
  Q 243.84 324.11 249.38 332.18
  Q 250.83 334.29 251.25 337.09
  Q 251.66 339.90 251.27 342.16
  Z
  M 231.9197 357.9732
  A 16.58 15.52 102.4 0 0 250.6380 345.1127
  A 16.58 15.52 102.4 0 0 239.0403 325.5868
  A 16.58 15.52 102.4 0 0 220.3220 338.4473
  A 16.58 15.52 102.4 0 0 231.9197 357.9732
  Z"
/>
<path fill="#dfdbe7" fill-opacity="0.996" d="
  M 286.11 326.03
  L 286.20 355.95
  Q 286.20 357.45 287.69 357.47
  L 291.49 357.54
  Q 293.05 357.57 292.99 356.01
  L 292.57 346.54
  A 1.26 1.26 0.0 0 1 293.61 345.24
  Q 299.56 344.20 301.77 349.63
  Q 303.04 352.74 304.07 356.03
  C 304.49 357.36 305.72 357.48 306.90 357.56
  Q 309.37 357.73 311.45 357.10
  Q 312.01 356.93 312.57 357.13
  C 314.16 357.71 315.76 357.44 317.44 357.53
  Q 319.29 357.63 319.63 355.79
  Q 320.31 352.14 321.50 349.03
  A 1.32 1.32 0.0 0 1 322.74 348.17
  L 331.74 348.14
  A 1.73 1.73 0.0 0 1 333.44 349.48
  L 335.01 356.18
  Q 335.32 357.50 336.68 357.51
  L 341.79 357.52
  Q 343.24 357.53 342.77 356.15
  L 332.40 325.96
  Q 333.84 325.69 334.25 328.68
  Q 334.51 330.59 334.93 331.73
  Q 339.29 343.48 343.17 355.23
  Q 343.35 355.78 343.81 356.06
  A 0.72 0.72 0.0 0 0 344.91 355.53
  L 345.28 352.15
  A 1.21 1.21 0.0 0 1 346.82 351.12
  L 352.09 352.63
  Q 349.77 352.89 346.88 351.45
  A 0.19 0.18 21.4 0 0 346.62 351.56
  Q 345.82 354.22 345.32 356.87
  Q 345.27 357.13 345.52 357.19
  C 351.37 358.63 361.26 359.47 365.43 354.53
  Q 369.11 350.18 366.00 343.85
  C 364.50 340.80 358.67 338.47 355.53 337.33
  Q 352.68 336.28 351.89 333.56
  Q 351.73 333.03 352.02 332.56
  Q 353.01 330.99 354.96 330.76
  Q 359.49 330.25 363.46 331.51
  Q 365.27 332.09 365.44 330.19
  L 365.67 327.43
  Q 365.80 325.93 364.31 325.73
  C 357.60 324.86 347.09 324.65 346.04 332.88
  C 345.01 340.93 352.62 343.09 358.43 345.82
  C 360.66 346.87 362.55 349.92 360.05 351.85
  Q 358.67 352.92 356.85 352.62
  Q 359.00 351.76 360.41 350.39
  Q 360.77 350.03 360.56 349.57
  Q 359.57 347.40 357.31 346.26
  Q 353.72 344.46 350.30 342.64
  C 345.50 340.11 343.44 334.37 346.26 329.48
  C 348.21 326.10 352.47 325.09 356.26 324.93
  Q 361.32 324.71 365.17 325.40
  Q 367.16 325.76 366.37 327.62
  Q 365.70 329.18 366.05 331.08
  A 0.79 0.79 0.0 0 1 365.38 332.01
  Q 362.20 332.46 360.42 331.66
  C 357.73 330.46 355.90 331.44 353.35 332.19
  Q 352.89 332.32 352.88 332.80
  Q 352.85 334.90 354.85 335.96
  C 361.63 339.55 369.15 340.90 367.91 350.90
  C 367.31 355.69 362.87 358.26 358.45 358.77
  Q 352.18 359.50 346.00 358.01
  Q 344.60 357.67 343.08 357.83
  Q 340.27 358.14 337.90 358.01
  Q 337.46 357.98 337.04 358.13
  C 335.11 358.81 334.07 356.21 334.05 354.78
  C 334.03 353.20 333.26 352.08 332.93 350.60
  A 2.08 2.08 0.0 0 0 330.91 348.97
  L 323.29 348.92
  A 1.27 1.27 0.0 0 0 322.28 349.42
  C 320.51 351.74 321.34 354.77 319.94 357.40
  A 1.13 1.12 -75.7 0 1 318.95 358.00
  L 304.99 358.00
  A 0.98 0.98 0.0 0 1 304.11 357.45
  Q 302.47 354.04 300.99 350.29
  Q 300.19 348.27 298.59 346.46
  Q 298.18 346.00 297.56 346.00
  L 294.54 346.00
  A 0.70 0.69 -1.2 0 0 293.85 346.71
  L 294.03 356.73
  Q 294.06 358.01 292.77 358.01
  L 286.25 357.99
  Q 284.85 357.98 284.99 356.59
  Q 285.64 350.29 285.96 345.00
  C 286.12 342.26 285.30 339.86 285.71 337.10
  Q 286.34 332.81 285.21 328.35
  Q 284.51 325.58 286.11 326.03
  Z"
/>
<path fill="#dfdbe7" fill-opacity="0.996" d="
  M 404.91 338.84
  Q 405.49 341.03 404.42 343.37
  A 0.82 0.82 0.0 0 1 403.15 343.65
  L 397.93 339.22
  A 0.57 0.57 0.0 0 1 398.02 338.29
  C 402.99 335.45 403.97 328.52 397.89 326.15
  Q 393.01 324.24 388.08 326.62
  C 384.89 328.16 383.54 331.46 384.99 334.76
  C 385.69 336.36 387.03 337.59 388.23 338.81
  Q 388.73 339.31 388.10 339.63
  Q 381.72 342.91 381.86 350.46
  C 381.92 353.73 384.38 356.74 387.44 357.63
  Q 395.90 360.11 402.22 352.88
  A 1.30 1.29 -40.2 0 1 404.30 353.05
  L 406.37 356.40
  A 2.40 2.39 74.7 0 0 408.38 357.55
  L 412.27 357.59
  Q 414.00 357.61 413.15 356.10
  Q 410.70 351.77 407.56 348.35
  A 1.73 1.72 -50.6 0 1 407.36 346.27
  L 411.44 339.70
  Q 409.96 344.25 408.17 346.37
  A 0.97 0.96 -45.8 0 0 408.18 347.63
  Q 411.32 351.13 414.14 356.47
  Q 414.95 357.99 413.23 357.99
  L 407.71 358.00
  Q 405.86 358.01 405.20 356.28
  Q 404.66 354.91 403.67 353.83
  Q 403.21 353.33 402.72 353.80
  C 399.57 356.80 396.69 358.80 392.16 359.05
  C 384.91 359.45 379.20 354.21 381.34 346.83
  Q 382.16 343.98 384.88 340.67
  A 2.38 2.26 6.9 0 1 385.81 339.98
  Q 386.45 339.71 386.88 339.22
  Q 387.29 338.75 386.82 338.33
  C 384.32 336.12 383.38 333.19 384.19 329.86
  C 385.32 325.29 391.96 324.47 395.84 324.96
  C 400.16 325.51 404.53 329.91 402.59 334.23
  Q 401.62 336.39 399.48 338.51
  Q 399.02 338.97 399.50 339.40
  L 403.15 342.62
  A 0.46 0.46 0.0 0 0 403.91 342.22
  Q 403.57 339.53 404.91 338.84
  Z"
/>
<path fill="#165686" d="
  M 442.88 325.99
  Q 444.10 326.63 446.38 327.37
  C 449.10 328.26 450.88 330.52 451.21 333.40
  Q 452.05 340.51 445.52 344.02
  Q 443.94 344.87 439.93 345.80
  Q 438.56 346.74 435.46 345.56
  Q 434.29 351.19 434.95 356.47
  A 0.95 0.95 0.0 0 1 433.98 357.54
  L 428.99 357.43
  A 0.61 0.60 1.9 0 1 428.40 356.81
  Q 428.91 342.04 428.41 326.57
  Q 428.40 326.23 428.06 326.18
  L 427.72 326.13
  Q 428.91 326.15 429.84 325.18
  Q 430.11 324.89 430.19 325.28
  Q 430.34 326.05 431.24 326.04
  Q 437.20 325.96 442.88 325.99
  Z
  M 434.62 332.57
  L 434.87 340.40
  A 1.25 1.25 0.0 0 0 436.15 341.61
  L 438.91 341.52
  A 6.39 4.44 -1.8 0 0 445.16 336.89
  L 445.11 335.43
  A 6.39 4.44 -1.8 0 0 438.59 331.19
  L 435.83 331.28
  A 1.25 1.25 0.0 0 0 434.62 332.57
  Z"
/>
<path fill="#dfdbe7" fill-opacity="0.996" d="
  M 496.3350 358.8721
  A 17.33 16.24 101.5 0 1 483.8760 338.6523
  A 17.33 16.24 101.5 0 1 503.2450 324.9079
  A 17.33 16.24 101.5 0 1 515.7040 345.1277
  A 17.33 16.24 101.5 0 1 496.3350 358.8721
  Z
  M 496.1215 357.9051
  A 16.55 15.47 102.7 0 0 514.8515 345.1610
  A 16.55 15.47 102.7 0 0 503.3985 325.6149
  A 16.55 15.47 102.7 0 0 484.6685 338.3590
  A 16.55 15.47 102.7 0 0 496.1215 357.9051
  Z"
/>
<path fill="#dfdbe7" fill-opacity="0.996" d="
  M 589.13 352.60
  Q 586.12 352.96 583.49 350.76
  Q 580.38 348.15 579.71 344.71
  C 577.88 335.32 583.59 328.45 593.45 331.14
  A 1.10 1.09 -77.5 0 0 594.82 330.26
  L 595.33 327.07
  A 1.19 1.18 9.4 0 0 594.36 325.72
  C 586.59 324.37 578.75 326.45 574.83 333.75
  Q 569.91 342.90 575.41 351.60
  Q 577.46 354.84 581.09 356.66
  C 583.10 357.67 585.47 357.78 587.76 358.15
  Q 593.93 359.13 597.02 356.22
  Q 597.39 358.44 594.75 358.78
  Q 587.94 359.67 582.49 357.98
  C 579.17 356.96 573.44 352.54 572.90 348.16
  C 572.72 346.68 572.03 345.56 571.97 344.00
  Q 571.74 338.04 574.52 333.02
  C 579.07 324.81 586.26 324.25 594.69 325.12
  A 1.56 1.56 0.0 0 1 596.09 326.64
  Q 596.12 328.54 595.65 330.16
  C 595.19 331.74 593.75 332.54 592.25 331.69
  C 589.66 330.23 584.10 331.66 582.38 334.44
  C 581.03 336.62 579.85 339.15 579.98 341.80
  Q 580.36 350.03 589.13 352.60
  Z"
/>
<path fill="#dfdbe7" fill-opacity="0.996" d="
  M 637.8763 358.8244
  A 17.36 16.22 103.3 0 1 626.0850 338.1986
  A 17.36 16.22 103.3 0 1 645.8637 325.0356
  A 17.36 16.22 103.3 0 1 657.6550 345.6614
  A 17.36 16.22 103.3 0 1 637.8763 358.8244
  Z
  M 637.9981 357.8956
  A 16.57 15.47 103.3 0 0 656.8651 345.3289
  A 16.57 15.47 103.3 0 0 645.6219 325.6444
  A 16.57 15.47 103.3 0 0 626.7549 338.2111
  A 16.57 15.47 103.3 0 0 637.9981 357.8956
  Z"
/>
<path fill="#dfdbe7" fill-opacity="0.996" d="
  M 667.84 352.61
  Q 665.45 352.90 663.47 351.81
  A 1.17 1.17 0.0 0 0 661.76 352.61
  L 661.09 356.02
  A 1.16 1.15 10.3 0 0 662.04 357.39
  Q 665.01 357.86 667.75 358.17
  C 673.74 358.84 683.18 357.09 683.20 349.05
  C 683.22 342.52 677.26 339.49 671.78 337.65
  Q 669.01 336.73 667.77 334.44
  A 1.99 1.98 53.6 0 1 668.12 332.09
  C 669.31 330.91 670.96 330.48 672.63 330.65
  C 674.93 330.88 676.71 330.43 679.03 331.44
  Q 680.54 332.09 680.82 330.47
  L 681.33 327.63
  Q 681.63 325.93 679.91 325.72
  C 675.06 325.11 667.38 324.74 663.84 328.51
  Q 659.52 333.11 662.99 339.08
  C 663.92 340.67 667.46 342.87 669.19 343.52
  Q 672.35 344.71 674.94 346.24
  C 679.72 349.06 676.19 353.65 671.72 352.72
  C 673.48 351.95 676.91 351.68 675.94 348.78
  Q 675.51 347.51 673.91 346.67
  Q 670.37 344.81 666.92 343.22
  C 659.51 339.81 658.45 329.45 666.33 326.04
  C 670.37 324.29 674.88 325.21 679.11 324.86
  A 2.67 2.67 0.0 0 1 682.00 327.52
  L 682.00 330.13
  A 2.17 2.17 0.0 0 1 679.21 332.21
  C 678.14 331.89 677.26 332.11 676.23 331.63
  Q 672.94 330.09 669.79 332.09
  A 2.18 2.18 0.0 0 0 670.29 336.01
  C 674.14 337.24 680.23 339.85 682.42 343.50
  C 685.22 348.16 684.42 352.82 680.27 356.34
  C 675.49 360.39 666.44 359.28 660.82 357.88
  Q 659.81 357.63 660.08 356.63
  L 661.37 351.93
  A 1.17 1.16 15.7 0 1 662.82 351.12
  L 667.84 352.61
  Z"
/>
<path fill="#165686" d="
  M 231.9197 357.9732
  A 16.58 15.52 102.4 0 1 220.3220 338.4473
  A 16.58 15.52 102.4 0 1 239.0403 325.5868
  A 16.58 15.52 102.4 0 1 250.6380 345.1127
  A 16.58 15.52 102.4 0 1 231.9197 357.9732
  Z
  M 234.24 352.73
  L 236.50 352.62
  Q 236.33 353.24 237.44 352.79
  Q 244.60 349.89 244.20 341.98
  Q 244.01 338.27 243.66 337.24
  C 241.61 331.10 234.59 327.89 229.54 333.22
  Q 227.61 335.26 227.06 338.11
  Q 226.41 341.43 226.69 343.99
  Q 227.50 351.27 234.24 352.73
  Z"
/>
<path fill="#165686" d="
  M 404.91 338.84
  C 405.89 338.71 406.48 339.11 407.40 338.91
  Q 407.92 338.80 407.72 338.31
  Q 407.37 337.42 408.24 337.82
  Q 411.07 339.10 411.44 339.70
  L 407.36 346.27
  A 1.73 1.72 -50.6 0 0 407.56 348.35
  Q 410.70 351.77 413.15 356.10
  Q 414.00 357.61 412.27 357.59
  L 408.38 357.55
  A 2.40 2.39 74.7 0 1 406.37 356.40
  L 404.30 353.05
  A 1.30 1.29 -40.2 0 0 402.22 352.88
  Q 395.90 360.11 387.44 357.63
  C 384.38 356.74 381.92 353.73 381.86 350.46
  Q 381.72 342.91 388.10 339.63
  Q 388.73 339.31 388.23 338.81
  C 387.03 337.59 385.69 336.36 384.99 334.76
  C 383.54 331.46 384.89 328.16 388.08 326.62
  Q 393.01 324.24 397.89 326.15
  C 403.97 328.52 402.99 335.45 398.02 338.29
  A 0.57 0.57 0.0 0 0 397.93 339.22
  L 403.15 343.65
  A 0.82 0.82 0.0 0 0 404.42 343.37
  Q 405.49 341.03 404.91 338.84
  Z
  M 397.11 333.51
  A 4.08 3.51 65.2 0 0 397.09 332.58
  A 3.92 3.45 66.7 0 0 394.24 329.07
  A 3.91 3.44 66.4 0 0 390.18 331.55
  A 3.91 3.44 67.2 0 0 392.82 336.42
  A 3.91 3.44 66.9 0 0 396.78 334.73
  A 4.08 3.57 67.4 0 0 397.11 333.51
  Z
  M 392.44 352.66
  L 395.05 352.67
  Q 398.39 351.98 400.49 349.56
  A 1.36 1.36 0.0 0 0 400.48 347.77
  Q 397.67 344.60 393.95 342.10
  C 388.05 338.13 384.84 353.14 392.44 352.66
  Z"
/>
<path fill="#165686" d="
  M 637.9981 357.8956
  A 16.57 15.47 103.3 0 1 626.7549 338.2111
  A 16.57 15.47 103.3 0 1 645.6219 325.6444
  A 16.57 15.47 103.3 0 1 656.8651 345.3289
  A 16.57 15.47 103.3 0 1 637.9981 357.8956
  Z
  M 642.1177 353.1571
  A 11.36 8.91 88.7 0 0 650.7677 341.5979
  A 11.36 8.91 88.7 0 0 641.6023 330.4429
  A 11.36 8.91 88.7 0 0 632.9523 342.0021
  A 11.36 8.91 88.7 0 0 642.1177 353.1571
  Z"
/>
<path fill="#165686" d="
  M 352.09 352.63
  Q 354.51 353.20 356.85 352.62
  Q 358.67 352.92 360.05 351.85
  C 362.55 349.92 360.66 346.87 358.43 345.82
  C 352.62 343.09 345.01 340.93 346.04 332.88
  C 347.09 324.65 357.60 324.86 364.31 325.73
  Q 365.80 325.93 365.67 327.43
  L 365.44 330.19
  Q 365.27 332.09 363.46 331.51
  Q 359.49 330.25 354.96 330.76
  Q 353.01 330.99 352.02 332.56
  Q 351.73 333.03 351.89 333.56
  Q 352.68 336.28 355.53 337.33
  C 358.67 338.47 364.50 340.80 366.00 343.85
  Q 369.11 350.18 365.43 354.53
  C 361.26 359.47 351.37 358.63 345.52 357.19
  Q 345.27 357.13 345.32 356.87
  Q 345.82 354.22 346.62 351.56
  A 0.19 0.18 21.4 0 1 346.88 351.45
  Q 349.77 352.89 352.09 352.63
  Z"
/>
<path fill="#165686" d="
  M 496.1215 357.9051
  A 16.55 15.47 102.7 0 1 484.6685 338.3590
  A 16.55 15.47 102.7 0 1 503.3985 325.6149
  A 16.55 15.47 102.7 0 1 514.8515 345.1610
  A 16.55 15.47 102.7 0 1 496.1215 357.9051
  Z
  M 499.9673 353.1471
  A 11.34 9.00 88.7 0 0 508.7077 341.6058
  A 11.34 9.00 88.7 0 0 499.4527 330.4729
  A 11.34 9.00 88.7 0 0 490.7123 342.0142
  A 11.34 9.00 88.7 0 0 499.9673 353.1471
  Z"
/>
<path fill="#165686" d="
  M 589.13 352.60
  Q 590.68 352.90 592.48 352.61
  Q 594.55 352.98 596.85 352.06
  Q 596.99 351.99 597.10 352.03
  Q 597.36 352.12 597.27 352.38
  Q 596.83 353.73 597.02 356.22
  Q 593.93 359.13 587.76 358.15
  C 585.47 357.78 583.10 357.67 581.09 356.66
  Q 577.46 354.84 575.41 351.60
  Q 569.91 342.90 574.83 333.75
  C 578.75 326.45 586.59 324.37 594.36 325.72
  A 1.19 1.18 9.4 0 1 595.33 327.07
  L 594.82 330.26
  A 1.10 1.09 -77.5 0 1 593.45 331.14
  C 583.59 328.45 577.88 335.32 579.71 344.71
  Q 580.38 348.15 583.49 350.76
  Q 586.12 352.96 589.13 352.60
  Z"
/>
<path fill="#165686" d="
  M 624.16 325.85
  L 623.65 331.02
  A 0.95 0.95 0.0 0 1 622.45 331.84
  Q 619.38 330.99 615.58 331.37
  A 1.19 1.17 -3.2 0 0 614.51 332.55
  L 614.71 356.17
  Q 614.72 357.54 613.34 357.54
  L 609.34 357.51
  Q 608.18 357.50 608.19 356.34
  L 608.45 332.05
  A 0.85 0.85 0.0 0 0 607.54 331.19
  L 599.97 331.76
  A 0.85 0.85 0.0 0 1 599.06 330.96
  L 598.76 325.83
  L 624.16 325.85
  Z"
/>
<path fill="#165686" d="
  M 667.84 352.61
  L 671.72 352.72
  C 676.19 353.65 679.72 349.06 674.94 346.24
  Q 672.35 344.71 669.19 343.52
  C 667.46 342.87 663.92 340.67 662.99 339.08
  Q 659.52 333.11 663.84 328.51
  C 667.38 324.74 675.06 325.11 679.91 325.72
  Q 681.63 325.93 681.33 327.63
  L 680.82 330.47
  Q 680.54 332.09 679.03 331.44
  C 676.71 330.43 674.93 330.88 672.63 330.65
  C 670.96 330.48 669.31 330.91 668.12 332.09
  A 1.99 1.98 53.6 0 0 667.77 334.44
  Q 669.01 336.73 671.78 337.65
  C 677.26 339.49 683.22 342.52 683.20 349.05
  C 683.18 357.09 673.74 358.84 667.75 358.17
  Q 665.01 357.86 662.04 357.39
  A 1.16 1.15 10.3 0 1 661.09 356.02
  L 661.76 352.61
  A 1.17 1.17 0.0 0 1 663.47 351.81
  Q 665.45 352.90 667.84 352.61
  Z"
/>
<path fill="#165686" d="
  M 271.33 326.14
  Q 276.71 327.08 278.93 331.02
  L 279.12 334.47
  Q 277.12 337.98 274.09 339.84
  Q 273.44 340.23 274.17 340.46
  Q 280.59 342.44 280.50 348.46
  C 280.40 355.27 272.04 357.56 266.44 357.49
  Q 261.75 357.44 257.08 357.45
  A 0.78 0.78 0.0 0 1 256.30 356.63
  Q 257.02 341.43 256.19 326.03
  L 271.33 326.14
  Z
  M 264.58 338.98
  Q 265.06 339.06 265.49 338.98
  Q 269.85 339.46 271.52 337.54
  C 274.09 334.56 271.15 331.40 267.99 331.26
  Q 265.74 331.15 263.52 331.42
  A 1.16 1.15 -2.1 0 0 262.51 332.50
  Q 262.39 334.74 262.43 337.25
  Q 262.45 339.37 264.58 338.98
  Z
  M 264.51 351.88
  Q 266.43 352.26 268.53 351.84
  Q 271.19 352.19 272.68 350.90
  Q 275.15 348.77 273.73 346.37
  C 272.28 343.89 268.95 343.62 266.32 343.88
  L 264.70 343.89
  Q 263.64 343.68 262.96 344.23
  Q 262.61 344.51 262.61 344.97
  L 262.61 350.76
  Q 262.61 351.25 262.96 351.59
  Q 263.90 352.50 264.51 351.88
  Z"
/>
<path fill="#165686" d="
  M 300.14 325.98
  Q 308.84 327.45 308.94 333.46
  C 308.99 337.10 306.65 340.19 303.35 341.51
  A 0.66 0.66 0.0 0 0 303.20 342.66
  C 304.78 343.81 306.33 345.10 307.14 346.88
  Q 309.23 351.48 311.40 356.18
  A 0.59 0.59 0.0 0 0 312.49 356.14
  L 323.68 326.12
  L 332.40 325.96
  L 342.77 356.15
  Q 343.24 357.53 341.79 357.52
  L 336.68 357.51
  Q 335.32 357.50 335.01 356.18
  L 333.44 349.48
  A 1.73 1.73 0.0 0 0 331.74 348.14
  L 322.74 348.17
  A 1.32 1.32 0.0 0 0 321.50 349.03
  Q 320.31 352.14 319.63 355.79
  Q 319.29 357.63 317.44 357.53
  C 315.76 357.44 314.16 357.71 312.57 357.13
  Q 312.01 356.93 311.45 357.10
  Q 309.37 357.73 306.90 357.56
  C 305.72 357.48 304.49 357.36 304.07 356.03
  Q 303.04 352.74 301.77 349.63
  Q 299.56 344.20 293.61 345.24
  A 1.26 1.26 0.0 0 0 292.57 346.54
  L 292.99 356.01
  Q 293.05 357.57 291.49 357.54
  L 287.69 357.47
  Q 286.20 357.45 286.20 355.95
  L 286.11 326.03
  L 300.14 325.98
  Z
  M 323.88 342.75
  Q 327.43 343.51 329.72 342.52
  Q 329.89 342.88 330.39 342.96
  A 0.69 0.69 0.0 0 0 331.16 342.08
  L 327.84 331.23
  Q 327.39 329.76 326.92 331.22
  Q 325.47 335.79 323.88 340.81
  Q 323.08 343.31 323.88 342.75
  Z
  M 292.56 332.68
  L 292.70 339.52
  A 1.35 1.35 0.0 0 0 294.08 340.84
  L 297.34 340.77
  A 5.49 4.62 -1.2 0 0 302.73 336.03
  L 302.73 335.73
  A 5.49 4.62 -1.2 0 0 297.14 331.23
  L 293.88 331.30
  A 1.35 1.35 0.0 0 0 292.56 332.68
  Z"
/>
<path fill="#dfdbe7" fill-opacity="0.996" d="
  M 300.14 325.98
  C 303.79 325.67 307.27 326.60 308.68 330.24
  Q 310.80 335.72 306.72 340.28
  A 2.20 2.19 10.2 0 1 305.88 340.86
  Q 304.99 341.21 304.46 342.03
  Q 304.16 342.49 304.65 342.73
  C 305.55 343.17 306.44 343.91 306.90 344.82
  Q 308.80 348.66 310.74 352.67
  C 311.02 353.23 310.95 354.08 311.20 354.47
  Q 311.77 355.39 312.20 354.40
  Q 315.09 347.77 317.17 341.68
  Q 317.60 340.42 319.96 334.53
  Q 321.44 330.85 322.28 327.25
  Q 322.46 326.47 323.68 326.12
  L 312.49 356.14
  A 0.59 0.59 0.0 0 1 311.40 356.18
  Q 309.23 351.48 307.14 346.88
  C 306.33 345.10 304.78 343.81 303.20 342.66
  A 0.66 0.66 0.0 0 1 303.35 341.51
  C 306.65 340.19 308.99 337.10 308.94 333.46
  Q 308.84 327.45 300.14 325.98
  Z"
/>
<path fill="#165686" d="
  M 470.46 325.98
  Q 479.98 327.94 478.24 335.77
  Q 477.83 337.66 476.04 339.64
  C 475.15 340.63 473.94 340.98 472.85 341.68
  A 0.47 0.46 -44.6 0 0 472.84 342.46
  Q 475.94 344.56 477.57 348.34
  Q 479.17 352.05 480.82 355.40
  Q 481.83 357.46 479.54 357.58
  L 476.77 357.73
  Q 474.49 357.85 473.76 355.69
  Q 472.28 351.32 470.68 347.99
  C 469.28 345.08 465.89 344.94 463.09 345.16
  A 0.78 0.78 0.0 0 0 462.36 345.96
  L 462.62 356.76
  Q 462.63 357.41 461.99 357.42
  L 456.89 357.56
  A 0.92 0.92 0.0 0 1 455.94 356.60
  Q 456.55 341.39 455.44 325.94
  L 470.46 325.98
  Z
  M 462.09 332.60
  L 462.13 339.42
  A 1.39 1.39 0.0 0 0 463.53 340.80
  L 466.96 340.77
  A 5.52 4.59 -0.4 0 0 472.45 336.14
  L 472.45 335.72
  A 5.52 4.59 -0.4 0 0 466.90 331.17
  L 463.47 331.20
  A 1.39 1.39 0.0 0 0 462.09 332.60
  Z"
/>
<path fill="#165686" d="
  M 544.03 327.28
  Q 543.73 327.17 543.61 327.38
  Q 540.18 333.17 536.52 338.92
  C 535.17 341.04 533.35 344.94 533.37 347.43
  Q 533.43 352.29 533.67 356.89
  Q 533.70 357.39 533.20 357.45
  Q 529.64 357.89 526.69 356.96
  L 527.14 348.84
  Q 527.60 348.55 527.41 347.49
  Q 526.49 342.46 523.67 337.37
  Q 520.63 331.88 516.44 325.91
  L 524.85 325.93
  L 531.01 340.79
  Q 531.33 341.58 531.63 340.79
  L 537.33 326.02
  L 544.23 326.06
  Q 544.83 326.06 544.59 326.62
  Q 544.43 326.96 544.03 327.28
  Z"
/>
<path fill="#165686" d="
  M 567.70 325.95
  L 567.57 330.22
  Q 567.52 331.87 565.88 331.69
  Q 560.19 331.08 555.04 331.37
  A 0.79 0.78 -2.3 0 0 554.30 332.16
  L 554.39 338.01
  A 0.96 0.96 0.0 0 0 554.96 338.87
  Q 555.87 339.28 556.10 338.88
  L 563.22 338.50
  Q 566.65 339.45 564.96 344.05
  Q 564.78 344.56 564.24 344.54
  L 555.49 344.37
  A 0.94 0.94 0.0 0 0 554.54 345.30
  Q 554.54 348.01 554.54 350.67
  Q 554.54 351.31 554.98 351.77
  Q 555.61 352.43 556.35 352.01
  L 563.41 351.80
  L 569.00 352.03
  L 569.07 355.45
  Q 568.78 357.44 567.26 357.46
  Q 558.13 357.58 549.12 357.50
  A 1.08 1.08 0.0 0 1 548.05 356.36
  Q 548.85 341.26 548.02 325.94
  L 567.70 325.95
  Z"
/>
<path fill="#dfdbe7" fill-opacity="0.996" d="
  M 256.19 326.03
  Q 257.02 341.43 256.30 356.63
  A 0.78 0.78 0.0 0 0 257.08 357.45
  Q 261.75 357.44 266.44 357.49
  C 272.04 357.56 280.40 355.27 280.50 348.46
  Q 280.59 342.44 274.17 340.46
  Q 273.44 340.23 274.09 339.84
  Q 277.12 337.98 279.12 334.47
  Q 278.82 337.24 276.36 339.17
  Q 275.93 339.51 276.32 339.90
  L 280.56 344.16
  Q 280.96 344.56 280.97 345.13
  C 281.00 347.87 281.68 352.32 279.01 354.24
  Q 273.79 358.01 267.50 358.01
  Q 262.13 358.02 256.13 357.99
  Q 255.49 357.98 255.37 357.35
  C 254.96 355.21 255.94 353.41 255.96 351.19
  Q 256.04 340.55 256.00 330.81
  C 255.99 329.30 255.68 328.02 255.09 326.65
  Q 254.82 326.04 255.49 326.04
  L 256.19 326.03
  Z"
/>
<path fill="#dfdbe7" fill-opacity="0.996" d="
  M 271.33 326.14
  Q 274.43 325.56 277.09 327.67
  Q 278.94 329.14 278.93 331.02
  Q 276.71 327.08 271.33 326.14
  Z"
/>
<path fill="#dfdbe7" fill-opacity="0.996" d="
  M 427.72 326.13
  L 428.06 326.18
  Q 428.40 326.23 428.41 326.57
  Q 428.91 342.04 428.40 356.81
  A 0.61 0.60 1.9 0 0 428.99 357.43
  L 433.98 357.54
  A 0.95 0.95 0.0 0 0 434.95 356.47
  Q 434.29 351.19 435.46 345.56
  L 436.00 357.46
  Q 436.02 358.00 435.48 358.00
  L 428.46 358.00
  Q 427.90 358.00 427.72 357.46
  C 427.25 356.05 427.94 355.11 427.96 353.77
  Q 428.13 340.33 427.89 327.69
  Q 427.88 327.28 427.60 326.98
  L 427.27 326.62
  Q 426.95 326.28 427.39 326.13
  Q 427.54 326.09 427.72 326.13
  Z"
/>
<path fill="#dfdbe7" fill-opacity="0.996" d="
  M 442.88 325.99
  Q 446.46 326.07 449.35 327.95
  Q 449.77 328.23 450.01 328.67
  L 451.55 331.49
  Q 451.83 331.99 451.79 332.56
  C 451.66 334.80 452.41 337.16 451.29 339.22
  Q 448.60 344.21 443.00 346.02
  Q 442.22 346.26 439.93 345.80
  Q 443.94 344.87 445.52 344.02
  Q 452.05 340.51 451.21 333.40
  C 450.88 330.52 449.10 328.26 446.38 327.37
  Q 444.10 326.63 442.88 325.99
  Z"
/>
<path fill="#dfdbe7" fill-opacity="0.996" d="
  M 455.44 325.94
  Q 456.55 341.39 455.94 356.60
  A 0.92 0.92 0.0 0 0 456.89 357.56
  L 461.99 357.42
  Q 462.63 357.41 462.62 356.76
  L 462.36 345.96
  A 0.78 0.78 0.0 0 1 463.09 345.16
  C 465.89 344.94 469.28 345.08 470.68 347.99
  Q 472.28 351.32 473.76 355.69
  Q 474.49 357.85 476.77 357.73
  L 479.54 357.58
  Q 481.83 357.46 480.82 355.40
  Q 479.17 352.05 477.57 348.34
  Q 475.94 344.56 472.84 342.46
  A 0.47 0.46 -44.6 0 1 472.85 341.68
  C 473.94 340.98 475.15 340.63 476.04 339.64
  Q 477.83 337.66 478.24 335.77
  Q 479.98 327.94 470.46 325.98
  Q 477.28 326.14 479.13 331.70
  C 479.73 333.53 479.11 337.28 477.75 338.71
  Q 476.16 340.38 474.38 341.92
  Q 473.95 342.29 474.35 342.70
  Q 477.42 345.86 478.68 348.73
  Q 480.33 352.48 481.83 356.68
  Q 482.26 357.88 480.98 357.94
  L 475.79 358.17
  A 1.99 1.99 0.0 0 1 473.89 357.01
  Q 472.16 353.20 470.38 349.40
  Q 468.31 345.00 463.50 346.06
  Q 463.00 346.17 463.00 346.68
  L 463.00 357.24
  A 0.75 0.74 90.0 0 1 462.26 357.99
  L 455.78 358.00
  A 0.76 0.76 0.0 0 1 455.02 357.23
  L 455.44 325.94
  Z"
/>
<path fill="#dfdbe7" fill-opacity="0.996" d="
  M 516.44 325.91
  Q 520.63 331.88 523.67 337.37
  Q 526.49 342.46 527.41 347.49
  Q 527.60 348.55 527.14 348.84
  Q 526.04 342.97 523.10 338.17
  Q 518.98 331.46 516.44 325.91
  Z"
/>
<path fill="#dfdbe7" fill-opacity="0.996" d="
  M 524.85 325.93
  Q 526.47 328.82 528.01 331.68
  C 529.16 333.83 529.07 335.88 531.19 337.69
  Q 531.58 338.02 531.80 337.56
  L 537.33 326.02
  L 531.63 340.79
  Q 531.33 341.58 531.01 340.79
  L 524.85 325.93
  Z"
/>
<path fill="#dfdbe7" fill-opacity="0.996" d="
  M 548.02 325.94
  Q 548.85 341.26 548.05 356.36
  A 1.08 1.08 0.0 0 0 549.12 357.50
  Q 558.13 357.58 567.26 357.46
  Q 568.78 357.44 569.07 355.45
  Q 569.28 356.68 569.04 357.38
  Q 568.83 357.98 568.18 357.98
  L 547.54 357.99
  A 0.52 0.51 -0.6 0 1 547.02 357.49
  Q 546.93 354.10 547.56 350.70
  C 547.80 349.41 547.61 348.02 547.41 346.76
  A 0.60 0.59 68.9 0 1 547.67 346.17
  Q 547.81 346.08 547.91 345.93
  Q 548.02 345.76 548.02 345.55
  Q 547.99 341.49 548.03 337.52
  Q 548.03 337.22 547.87 336.94
  Q 547.61 336.46 547.68 335.92
  Q 547.96 333.82 547.11 330.62
  Q 546.09 326.79 548.02 325.94
  Z"
/>
<path fill="#dfdbe7" fill-opacity="0.996" d="
  M 567.70 325.95
  Q 568.39 325.92 568.69 326.19
  A 0.68 0.67 33.2 0 1 568.86 327.00
  Q 567.91 328.95 567.97 331.04
  Q 567.99 331.62 567.44 331.85
  Q 565.43 332.69 563.46 332.26
  C 561.04 331.73 558.21 332.00 555.74 332.01
  Q 555.15 332.02 555.04 332.59
  Q 554.31 336.42 556.10 338.88
  Q 555.87 339.28 554.96 338.87
  A 0.96 0.96 0.0 0 1 554.39 338.01
  L 554.30 332.16
  A 0.79 0.78 -2.3 0 1 555.04 331.37
  Q 560.19 331.08 565.88 331.69
  Q 567.52 331.87 567.57 330.22
  L 567.70 325.95
  Z"
/>
<path fill="#dfdbe7" fill-opacity="0.996" d="
  M 598.76 325.83
  L 599.06 330.96
  A 0.85 0.85 0.0 0 0 599.97 331.76
  L 607.54 331.19
  A 0.85 0.85 0.0 0 1 608.45 332.05
  L 608.19 356.34
  Q 608.18 357.50 609.34 357.51
  L 613.34 357.54
  Q 614.72 357.54 614.71 356.17
  L 614.51 332.55
  A 1.19 1.17 -3.2 0 1 615.58 331.37
  Q 619.38 330.99 622.45 331.84
  A 0.95 0.95 0.0 0 0 623.65 331.02
  L 624.16 325.85
  Q 626.24 329.17 624.01 332.25
  A 1.33 1.33 0.0 0 1 623.07 332.79
  Q 621.97 332.91 621.11 332.28
  Q 620.73 332.00 620.25 332.00
  L 616.71 332.00
  Q 615.11 332.00 615.08 333.61
  Q 614.94 340.91 615.02 348.66
  Q 615.06 352.84 615.84 356.50
  Q 616.10 357.71 614.87 357.86
  Q 611.92 358.22 608.10 357.96
  Q 606.98 357.88 606.99 356.76
  Q 607.00 353.93 607.55 351.44
  Q 608.04 349.21 608.03 346.96
  Q 608.02 339.69 608.07 332.73
  Q 608.08 332.11 607.46 332.04
  Q 604.17 331.70 601.12 332.63
  Q 599.68 333.07 598.64 332.03
  Q 597.95 331.35 597.85 330.12
  Q 597.60 327.08 598.76 325.83
  Z"
/>
<path fill="#dfdbe7" fill-opacity="0.996" d="
  M 544.03 327.28
  Q 543.74 328.83 542.79 330.28
  Q 539.29 335.59 536.24 340.92
  C 535.09 342.94 533.99 346.44 533.97 349.03
  Q 533.94 353.28 534.06 357.45
  Q 534.08 358.07 533.46 358.06
  L 526.86 358.03
  Q 526.23 358.02 526.19 357.40
  Q 526.13 356.48 526.69 356.96
  Q 529.64 357.89 533.20 357.45
  Q 533.70 357.39 533.67 356.89
  Q 533.43 352.29 533.37 347.43
  C 533.35 344.94 535.17 341.04 536.52 338.92
  Q 540.18 333.17 543.61 327.38
  Q 543.73 327.17 544.03 327.28
  Z"
/>
<path fill="#dfdbe7" fill-opacity="0.996" d="
  M 397.09 332.58
  Q 395.27 328.25 391.82 329.87
  Q 391.16 330.18 391.04 330.90
  Q 390.43 334.28 393.64 335.82
  Q 394.18 336.08 394.69 335.76
  Q 396.04 334.91 397.11 333.51
  A 4.08 3.57 67.4 0 1 396.78 334.73
  A 3.91 3.44 66.9 0 1 392.82 336.42
  A 3.91 3.44 67.2 0 1 390.18 331.55
  A 3.91 3.44 66.4 0 1 394.24 329.07
  A 3.92 3.45 66.7 0 1 397.09 332.58
  Z"
/>
<path fill="#dfdbe7" fill-opacity="0.996" d="
  M 236.50 352.62
  Q 243.67 349.68 243.67 342.00
  Q 243.68 338.89 241.63 334.85
  C 240.62 332.86 238.06 332.09 236.18 331.14
  Q 235.55 330.83 234.87 331.06
  C 228.03 333.41 226.65 338.90 227.96 345.40
  Q 228.44 347.77 229.82 349.27
  Q 231.62 351.22 234.24 352.73
  Q 227.50 351.27 226.69 343.99
  Q 226.41 341.43 227.06 338.11
  Q 227.61 335.26 229.54 333.22
  C 234.59 327.89 241.61 331.10 243.66 337.24
  Q 244.01 338.27 244.20 341.98
  Q 244.60 349.89 237.44 352.79
  Q 236.33 353.24 236.50 352.62
  Z"
/>
<path fill="#dfdbe7" fill-opacity="0.996" d="
  M 329.72 342.52
  Q 330.28 341.21 329.93 340.25
  Q 328.79 337.17 327.49 332.81
  Q 327.30 332.17 327.09 332.80
  L 323.88 342.75
  Q 323.08 343.31 323.88 340.81
  Q 325.47 335.79 326.92 331.22
  Q 327.39 329.76 327.84 331.23
  L 331.16 342.08
  A 0.69 0.69 0.0 0 1 330.39 342.96
  Q 329.89 342.88 329.72 342.52
  Z"
/>
<path fill="#dfdbe7" fill-opacity="0.996" d="
  M 499.9673 353.1471
  A 11.34 9.00 88.7 0 1 490.7123 342.0142
  A 11.34 9.00 88.7 0 1 499.4527 330.4729
  A 11.34 9.00 88.7 0 1 508.7077 341.6058
  A 11.34 9.00 88.7 0 1 499.9673 353.1471
  Z
  M 499.9678 352.5984
  A 10.76 8.14 89.0 0 0 507.9188 341.6979
  A 10.76 8.14 89.0 0 0 499.5922 331.0816
  A 10.76 8.14 89.0 0 0 491.6412 341.9821
  A 10.76 8.14 89.0 0 0 499.9678 352.5984
  Z"
/>
<path fill="#dfdbe7" fill-opacity="0.996" d="
  M 642.1177 353.1571
  A 11.36 8.91 88.7 0 1 632.9523 342.0021
  A 11.36 8.91 88.7 0 1 641.6023 330.4429
  A 11.36 8.91 88.7 0 1 650.7677 341.5979
  A 11.36 8.91 88.7 0 1 642.1177 353.1571
  Z
  M 642.1046 352.4880
  A 10.66 8.14 88.9 0 0 650.0385 341.6737
  A 10.66 8.14 88.9 0 0 641.6954 331.1720
  A 10.66 8.14 88.9 0 0 633.7615 341.9863
  A 10.66 8.14 88.9 0 0 642.1046 352.4880
  Z"
/>
<path fill="#dfdbe7" fill-opacity="0.996" d="
  M 265.49 338.98
  Q 267.19 337.87 269.17 337.99
  Q 269.69 338.02 270.03 337.63
  L 271.80 335.63
  Q 272.13 335.25 271.83 334.85
  C 270.69 333.36 269.25 331.78 267.15 331.95
  Q 265.79 332.05 264.45 332.00
  Q 263.34 331.96 263.14 333.05
  Q 262.48 336.74 264.58 338.98
  Q 262.45 339.37 262.43 337.25
  Q 262.39 334.74 262.51 332.50
  A 1.16 1.15 -2.1 0 1 263.52 331.42
  Q 265.74 331.15 267.99 331.26
  C 271.15 331.40 274.09 334.56 271.52 337.54
  Q 269.85 339.46 265.49 338.98
  Z"
/>
<path fill="#dfdbe7" fill-opacity="0.996" d="
  M 292.56 332.68
  A 1.35 1.35 0.0 0 1 293.88 331.30
  L 297.14 331.23
  A 5.49 4.62 -1.2 0 1 302.73 335.73
  L 302.73 336.03
  A 5.49 4.62 -1.2 0 1 297.34 340.77
  L 294.08 340.84
  A 1.35 1.35 0.0 0 1 292.70 339.52
  L 292.56 332.68
  Z
  M 300.86 333.52
  C 299.61 331.47 296.47 331.90 294.34 331.98
  Q 293.76 332.00 293.47 332.50
  Q 292.30 334.52 293.62 336.57
  A 0.85 0.84 -47.1 0 1 293.65 337.43
  Q 293.18 338.26 293.20 339.22
  Q 293.22 340.00 294.00 340.00
  Q 296.26 340.01 298.49 340.11
  C 299.72 340.17 300.45 339.20 301.14 338.34
  C 302.60 336.53 301.85 335.15 300.86 333.52
  Z"
/>
<path fill="#dfdbe7" fill-opacity="0.996" d="
  M 434.62 332.57
  A 1.25 1.25 0.0 0 1 435.83 331.28
  L 438.59 331.19
  A 6.39 4.44 -1.8 0 1 445.11 335.43
  L 445.16 336.89
  A 6.39 4.44 -1.8 0 1 438.91 341.52
  L 436.15 341.61
  A 1.25 1.25 0.0 0 1 434.87 340.40
  L 434.62 332.57
  Z
  M 435.61 338.88
  Q 435.59 339.76 435.96 340.56
  Q 436.17 341.00 436.64 341.08
  Q 438.44 341.38 439.41 340.29
  A 0.91 0.89 26.6 0 1 440.29 340.01
  Q 442.17 340.44 443.49 339.26
  A 1.65 1.61 -22.0 0 0 444.03 338.03
  L 444.00 334.47
  A 1.49 1.47 1.5 0 0 442.60 333.01
  Q 441.68 332.97 440.98 332.35
  Q 440.57 331.99 440.03 331.99
  L 436.24 332.00
  A 1.15 1.15 0.0 0 0 435.12 332.90
  Q 434.53 335.56 435.43 337.87
  Q 435.62 338.35 435.61 338.88
  Z"
/>
<path fill="#dfdbe7" fill-opacity="0.996" d="
  M 462.09 332.60
  A 1.39 1.39 0.0 0 1 463.47 331.20
  L 466.90 331.17
  A 5.52 4.59 -0.4 0 1 472.45 335.72
  L 472.45 336.14
  A 5.52 4.59 -0.4 0 1 466.96 340.77
  L 463.53 340.80
  A 1.39 1.39 0.0 0 1 462.13 339.42
  L 462.09 332.60
  Z
  M 463.00 332.79
  L 462.94 339.29
  A 0.84 0.84 0.0 0 0 463.77 340.14
  L 467.15 340.17
  A 4.56 3.94 0.5 0 0 471.75 336.27
  L 471.75 335.97
  A 4.56 3.94 0.5 0 0 467.23 331.99
  L 463.85 331.96
  A 0.84 0.84 0.0 0 0 463.00 332.79
  Z"
/>
<path fill="#dfdbe7" fill-opacity="0.996" d="
  M 556.35 352.01
  Q 555.61 352.43 554.98 351.77
  Q 554.54 351.31 554.54 350.67
  Q 554.54 348.01 554.54 345.30
  A 0.94 0.94 0.0 0 1 555.49 344.37
  L 564.24 344.54
  Q 564.78 344.56 564.96 344.05
  Q 566.65 339.45 563.22 338.50
  Q 564.68 337.55 565.46 338.20
  Q 565.99 338.65 565.98 339.41
  Q 565.95 342.00 565.96 344.28
  A 1.10 1.09 4.0 0 1 564.70 345.37
  Q 560.61 344.74 556.10 345.04
  Q 555.59 345.08 555.45 345.57
  Q 554.42 349.06 556.35 352.01
  Z"
/>
<path fill="#dfdbe7" fill-opacity="0.996" d="
  M 395.05 352.67
  L 399.76 349.54
  A 0.57 0.57 0.0 0 0 399.91 348.74
  C 398.13 346.27 391.99 338.71 389.47 344.19
  Q 386.74 350.11 392.44 352.66
  C 384.84 353.14 388.05 338.13 393.95 342.10
  Q 397.67 344.60 400.48 347.77
  A 1.36 1.36 0.0 0 1 400.49 349.56
  Q 398.39 351.98 395.05 352.67
  Z"
/>
<path fill="#dfdbe7" fill-opacity="0.996" d="
  M 264.70 343.89
  C 263.58 344.03 263.02 344.85 262.98 345.99
  C 262.91 347.93 262.28 350.86 264.51 351.88
  Q 263.90 352.50 262.96 351.59
  Q 262.61 351.25 262.61 350.76
  L 262.61 344.97
  Q 262.61 344.51 262.96 344.23
  Q 263.64 343.68 264.70 343.89
  Z"
/>
<path fill="#dfdbe7" fill-opacity="0.996" d="
  M 268.53 351.84
  C 270.86 350.85 274.17 350.41 272.86 346.75
  Q 272.40 345.47 270.41 344.80
  Q 268.36 344.12 266.32 343.88
  C 268.95 343.62 272.28 343.89 273.73 346.37
  Q 275.15 348.77 272.68 350.90
  Q 271.19 352.19 268.53 351.84
  Z"
/>
<path fill="#dfdbe7" fill-opacity="0.996" d="
  M 569.00 352.03
  L 563.41 351.80
  Q 568.27 349.93 569.00 352.03
  Z"
/>
<path fill="#dfdbe7" fill-opacity="0.996" d="
  M 596.85 352.06
  Q 594.55 352.98 592.48 352.61
  Q 594.75 351.45 596.85 352.06
  Z"
/>
</svg>
